<svg width="189" height="99" viewBox="0 0 189 99" fill="none" xmlns="http://www.w3.org/2000/svg">
<g clip-path="url(#clip0)">
<path d="M46.8652 15.6776H50.0078V22.4067C50.0078 24.4399 48.9728 25.4378 46.0518 25.4378C44.5002 25.4378 43.3544 24.9943 42.5786 24.143C41.9136 23.367 41.4684 22.185 41.2843 20.5934C41.0965 18.9679 40.9894 16.4161 40.9894 12.9416C40.9894 6.91331 41.6544 3.1419 43.0219 1.70061C43.8353 0.849367 44.9811 0.443474 46.4951 0.443474C48.1219 0.443474 49.5269 1.33042 50.7461 3.07425C51.9652 4.81809 52.6038 6.58071 52.6038 8.42977H53.0472V0.110869H52.6038C52.5663 0.516761 51.8637 0.924532 50.9414 0.924532C50.7198 0.924532 50.0905 0.776081 49.0179 0.481058C48.2087 0.196347 47.3616 0.0342025 46.5045 0C43.3638 0 40.7771 1.29472 38.6695 3.8447C36.5995 6.39655 35.5645 9.42884 35.5645 12.9416C35.5645 16.4543 36.5256 19.4859 38.4479 22.0365C40.3695 24.5884 42.9205 25.8455 46.0612 25.8455C47.5822 25.8298 49.0866 25.5283 50.4962 24.9567C52.0121 24.3648 52.8988 24.0698 53.2312 24.0698C54.1554 24.0698 54.5988 24.5132 54.5988 25.4002H54.9331V15.6776H58.1114V15.2322H46.8652V15.6776Z" fill="#E1BF91"/>
<path d="M119.101 1.0354H121.022C121.836 1.0354 122.243 1.36801 122.243 2.0708V17.4139L111.709 0.591927H102.912V1.0354H106.09V23.7465C106.09 24.4493 105.685 24.8195 104.871 24.8195H100.825L91.8443 0.11087H91.1775L83.01 23.3707C82.6775 24.3328 82.2342 24.8139 81.7533 24.8139H81.2011C81.4305 24.65 81.641 24.4609 81.8285 24.2502L81.5692 23.9551C81.3641 24.206 81.1042 24.4064 80.8095 24.541C80.5147 24.6755 80.1931 24.7406 79.8692 24.7312C78.6501 24.7312 78.0227 23.8818 78.0227 22.1812V19.1521C78.0602 17.3806 77.3957 15.6661 76.1743 14.3828C74.9533 13.0881 73.1425 12.4229 70.74 12.4229C72.3772 12.4606 73.9659 11.8649 75.175 10.7599C75.7527 10.245 76.2133 9.61236 76.526 8.90443C76.8387 8.19651 76.9961 7.42978 76.9877 6.65587C76.9877 4.91768 76.2476 3.47451 74.8068 2.33388C73.3661 1.19325 71.4068 0.597564 68.9667 0.597564H58.4268V1.04104H61.5694V24.8101H58.4268V25.2498H69.2936V24.8064H66.4909V12.6447H68.1947C71.4106 12.6447 72.9998 13.8642 72.9998 16.8238V18.703C72.9998 20.9955 73.5908 22.6961 74.773 23.8048C75.8921 24.8871 77.3922 25.4852 78.9488 25.4697C79.4169 25.4732 79.8823 25.3983 80.3257 25.248H86.3781V24.8045H83.3425C83.1546 24.8045 82.9668 24.5828 83.4533 23.3613L85.7075 17.1132H93.101L95.5768 24.8045H92.3985V25.2498H109.708V24.8064H107.79C106.941 24.8064 106.534 24.4305 106.534 23.7334V1.44129L121.937 25.6971H122.677V2.0708C122.677 1.36801 123.12 1.0354 123.971 1.0354H125.85V0.591927H119.101V1.0354ZM66.4909 12.2012V1.0354H68.1158C69.6693 1.0354 70.7043 1.44129 71.2584 2.25496C71.8126 3.06862 72.0718 4.58507 72.0718 6.76486C72.0718 9.01982 71.8501 10.4611 71.3693 11.1639C70.8884 11.8667 69.8534 12.1993 68.1909 12.1993L66.4909 12.2012ZM85.8521 16.6754L89.4737 6.2481L92.8756 16.6754H85.8521Z" fill="#E1BF91"/>
<path d="M146.008 4.21488C143.9 1.81147 141.312 0.591919 138.32 0.591919H127.565V1.03539H130.706V24.8101H127.565V25.2498H138.32C141.314 25.2498 143.865 24.0284 145.97 21.625C148.114 19.2216 149.186 16.3014 149.186 12.9378C149.186 9.50274 148.114 6.61828 146.008 4.21488ZM143.346 20.1142C143.051 21.6663 142.533 22.8126 141.795 23.5887C141.019 24.4024 139.835 24.8101 138.32 24.8101H135.631V1.03539H138.329C139.845 1.03539 141.028 1.44128 141.804 2.25495C143.134 3.58537 143.799 7.14068 143.799 12.9416C143.79 16.1567 143.643 18.5244 143.346 20.1142Z" fill="#E1BF91"/>
<path d="M51.8925 59.279C50.3766 61.2013 48.6409 62.1616 46.6441 62.1616C44.9817 62.1616 43.7983 61.7181 43.0225 60.8687C41.655 59.3899 40.9562 55.6542 40.9562 49.6654C40.9562 43.639 41.6587 39.9033 43.0225 38.4244C43.8359 37.5751 44.9817 37.1673 46.4957 37.1673C48.1225 37.1673 49.7116 38.0918 51.2275 39.9033C52.7791 41.7148 53.5556 43.4899 53.5568 45.2288H53.9626V36.8347H53.5568C53.446 37.2425 52.7791 37.6483 51.8549 37.6483C51.3759 37.6483 50.4874 37.4999 49.1951 37.2049C47.9384 36.8723 47.0518 36.7238 46.4957 36.7238C43.355 36.7238 40.7684 38.0185 38.6607 40.5685C36.5907 43.1204 35.5557 46.1527 35.5557 49.6654C35.5557 53.1775 36.6283 56.2085 38.734 58.7604C40.8792 61.3122 43.5034 62.5693 46.6441 62.5693C47.3091 62.5693 48.3441 62.3814 49.7868 62.0056C51.2294 61.6298 52.1893 61.4513 52.6683 61.4513C53.5568 61.4513 54.0734 62.0056 54.1842 62.4867H54.5599V52.8449H54.1842C54.1842 55.175 53.4084 57.3191 51.8925 59.279Z" fill="#E1BF91"/>
<path d="M67.895 36.8347H67.23L59.0625 60.0926C58.7282 61.0529 58.2849 61.5339 57.8059 61.5339H55.6982V61.9774H62.425V61.5339H59.395C59.2072 61.5339 59.0193 61.3122 59.5059 60.0926L61.76 53.8426H69.1517L71.6275 61.5339H68.4491V61.9774H80.0185V61.5339H76.8759L67.895 36.8347ZM61.9084 53.3992L65.53 42.9719L68.93 53.3992H61.9084Z" fill="#E1BF91"/>
<path d="M95.0569 49.6278C93.9486 48.63 92.1378 47.6322 89.662 46.7076C85.3735 45.0803 83.7111 43.6747 83.7111 41.198C83.7111 38.7946 85.3002 37.1673 87.9244 37.1673C89.476 37.1673 90.8079 37.7968 91.9537 39.0164C92.5038 39.585 92.9363 40.2566 93.2265 40.9928C93.5166 41.729 93.6586 42.5152 93.6443 43.3064H94.02V36.8347H93.6443C93.5335 37.3984 93.0902 37.6483 92.2392 37.6483C91.5166 37.6216 90.8038 37.4717 90.1316 37.2049C89.4203 36.8943 88.6536 36.7306 87.8775 36.7238C86.1418 36.7238 84.5883 37.4642 83.2941 38.9788C81.9998 40.4933 81.3837 42.3499 81.3837 44.6049C81.3837 48.4139 83.3429 50.1878 87.0021 51.5577C88.518 52.1214 89.6639 52.5574 90.3664 52.89C91.091 53.2324 91.7827 53.6406 92.4327 54.1095C93.8021 55.1073 94.1346 56.0694 94.1346 57.8076C94.1346 60.2843 92.3595 62.1691 88.7002 62.1691C87.3327 62.1691 86.0391 61.6887 84.8194 60.7278C83.6757 59.8215 82.7318 58.6885 82.0468 57.3999C81.4194 56.1803 81.0869 55.0716 81.0869 54.1095H80.6436V62.4566H81.0869C81.1977 61.7538 81.9735 61.1243 82.8977 61.1243C83.2302 61.1243 84.0436 61.3836 85.4111 61.8647C86.7786 62.3457 87.8869 62.5675 88.7378 62.5675C91.2136 62.5675 93.1353 61.7162 94.5779 59.978C95.9774 58.3265 96.7379 56.2275 96.7212 54.0625C96.7225 52.1045 96.1677 50.6262 95.0569 49.6278Z" fill="#E1BF91"/>
<path d="M97.9238 37.7592H101.065V61.5339H97.9238V61.9774H109.196V61.5339H105.982V37.7592H109.196V37.3157H97.9238V37.7592Z" fill="#E1BF91"/>
<path d="M127.787 37.7592H129.709C130.522 37.7592 130.93 38.0918 130.93 38.7946V54.1396L120.395 37.3157H111.599V37.7592H114.781V60.461C114.781 61.1638 114.375 61.5339 113.562 61.5339H111.636V61.9774H118.399V61.5339H116.471C115.622 61.5339 115.215 61.1581 115.215 60.461V38.167L130.618 62.4209H131.358V38.7946C131.358 38.0918 131.801 37.7592 132.65 37.7592H134.529V37.3157H127.766L127.787 37.7592Z" fill="#E1BF91"/>
<path d="M155.248 40.5328C153.105 37.981 150.516 36.7238 147.522 36.7238C144.381 36.7238 141.795 38.0185 139.687 40.5685C137.617 43.1204 136.582 46.1527 136.582 49.6654C136.582 53.2507 137.655 56.2837 139.798 58.7979C141.941 61.3122 144.53 62.5693 147.522 62.5693C150.514 62.5693 153.105 61.3122 155.248 58.7979C157.391 56.2837 158.464 53.2507 158.464 49.6654C158.464 46.08 157.391 43.0471 155.248 40.5328ZM152.586 57.1706C152.291 58.8336 151.773 60.0551 150.997 60.8687C150.221 61.7181 149.076 62.1616 147.522 62.1616C146.008 62.1616 144.862 61.7181 144.086 60.8687C143.311 60.0194 142.792 58.8017 142.46 57.133C142.163 55.47 142.016 52.9989 142.016 49.6654C142.016 43.639 142.717 39.8676 144.083 38.4244C144.858 37.5751 146.004 37.1673 147.518 37.1673C149.032 37.1673 150.18 37.5751 150.993 38.4244C152.361 39.8676 153.026 43.639 153.026 49.6654C153.03 53.029 152.883 55.5038 152.586 57.1706Z" fill="#E1BF91"/>
<path d="M74.6964 74.1899H76.618C77.4314 74.1899 77.8371 74.5225 77.8371 75.2253V90.5702L67.3047 73.7464H58.5079V74.1899H61.6862V96.8916C61.6862 97.5944 61.2786 97.9646 60.4652 97.9646H56.8812L46.5328 82.8057L52.4461 75.6312C53.592 74.2632 53.962 74.1899 54.5538 74.1899H56.5862V73.7464H50.0117V74.1899H52.4161C52.8594 74.1899 52.6734 74.6709 51.8976 75.6312L43.3225 85.9852V74.1899H46.5009V73.7464H35.2302V74.1899H38.3653V97.9721H35.2227V98.4156H46.4933V97.9721H43.3169V86.2069L51.1538 97.9721H47.7519V98.4156H65.3079V97.9721H63.3862C62.5353 97.9721 62.1295 97.5963 62.1295 96.8991V74.5976L77.5422 98.8516H78.2804V75.2347C78.2804 74.5319 78.7256 74.1993 79.5747 74.1993H81.4531V73.7558H74.6907L74.6964 74.1899Z" fill="#E1BF91"/>
<path d="M94.4313 73.1545C91.2905 73.1545 88.702 74.4492 86.5963 76.9992C84.5262 79.551 83.4912 82.5833 83.4912 86.096C83.4912 89.6814 84.5619 92.7143 86.7071 95.2286C88.8523 97.7429 91.437 99 94.4313 99C97.4255 99 100.012 97.7429 102.155 95.2286C104.299 92.7143 105.371 89.6814 105.371 86.096C105.371 82.5107 104.301 79.4777 102.155 76.9635C100.012 74.4116 97.4255 73.1545 94.4313 73.1545ZM99.5031 93.6013C99.2063 95.2643 98.6897 96.4857 97.9139 97.2994C97.1363 98.1488 95.9904 98.5922 94.4388 98.5922C92.9229 98.5922 91.777 98.1488 91.0012 97.2994C90.2254 96.45 89.7089 95.2323 89.3764 93.5637C89.0796 91.9007 88.9312 89.4296 88.9312 86.096C88.9312 80.0697 89.6337 76.2983 90.9975 74.8551C91.7733 74.0057 92.9191 73.598 94.435 73.598C95.951 73.598 97.0968 74.0057 97.9102 74.8551C99.2777 76.2983 99.9427 80.0697 99.9427 86.096C99.9408 89.4597 99.7905 91.9382 99.4956 93.6013H99.5031Z" fill="#E1BF91"/>
<path d="M172.859 90.2677C172.894 92.2409 172.214 94.1601 170.947 95.6721C169.654 97.1885 167.768 97.9646 165.217 97.9646H161.475V85.9457H162.289C164.84 85.9457 166.421 88.1274 166.421 90.6792H166.902V80.7706H166.438C166.438 83.3224 164.849 85.5041 162.306 85.5041H161.492V74.1899H165.116C167.073 74.1899 168.552 74.8927 169.551 76.334C170.583 77.7362 171.128 79.4375 171.103 81.1784H171.546V73.7464H153.419V74.1899H156.597V97.9721H152.589L142.238 82.8132L148.152 75.6387C149.298 74.2707 149.668 74.1974 150.259 74.1974H152.292V73.7539H145.717V74.1974H148.12C148.563 74.1974 148.377 74.6784 147.601 75.6387L139.026 85.9927V74.1899H142.206V73.7464H130.936V74.1899H134.078V97.9721H129.119L118.769 82.8132L124.684 75.6387C125.83 74.2707 126.198 74.1974 126.79 74.1974H128.822V73.7539H122.248V74.1974H124.65C125.094 74.1974 124.91 74.6784 124.134 75.6387L115.559 85.9927V74.1899H118.726V73.7464H107.455V74.1899H110.596V97.9721H107.455V98.4156H118.726V97.9721H115.555V86.2069L123.39 97.9721H119.99V98.4156H142.206V97.9721H139.022V86.2069L146.859 97.9721H143.459V98.4156H173.266V90.2677H172.859Z" fill="#E1BF91"/>
<path d="M40.7924 41.1942C40.6205 41.0511 40.4312 40.9305 40.2288 40.8353C39.5965 40.5311 38.9415 40.2766 38.2696 40.0743C36.4446 39.5142 34.543 39.2441 32.6343 39.2738C31.6331 39.2738 30.5943 39.2343 29.5949 39.2343C26.4354 39.2343 23.3153 39.3546 20.276 39.6346C17.3568 39.907 14.7176 40.1156 12.0296 40.4708C11.5111 40.5102 10.9908 40.591 10.5099 40.6305C10.2713 40.67 10.0703 40.67 9.87123 40.7113H9.55753C9.51808 40.7508 9.51808 40.7508 9.47864 40.7508C9.35099 40.764 9.22205 40.7454 9.10337 40.6965C8.9847 40.6476 8.87999 40.5701 8.79864 40.4708C8.7127 40.3729 8.64717 40.2588 8.60588 40.1352C8.56459 40.0116 8.54838 39.881 8.5582 39.7511C8.5582 39.6308 8.59765 39.5106 8.59765 39.3508C8.61324 39.3353 8.62506 39.3163 8.63222 39.2955C8.63939 39.2746 8.64169 39.2524 8.63897 39.2306C8.7714 38.6273 8.96007 38.0378 9.20251 37.4698C9.80173 35.9101 10.6808 34.2753 11.761 32.4695C15.5611 26.1086 19.6805 19.6275 24.3597 13.3869C25.7986 11.4664 27.2788 9.54596 28.7985 7.78522L29.362 7.14444C29.6102 6.86864 29.8375 6.57468 30.042 6.26501C30.0966 6.19111 30.1355 6.10677 30.1561 6.01723C30.1768 5.9277 30.1789 5.83486 30.1622 5.74449C30.1245 5.60093 30.0421 5.47311 29.927 5.37953C29.8118 5.28595 29.6699 5.23147 29.5217 5.22397C29.3546 5.2312 29.1969 5.30333 29.0821 5.42504C28.883 5.66556 28.6426 5.90421 28.4416 6.17669C28.3211 6.34734 28.1873 6.5082 28.0415 6.65774C22.4061 13.3794 16.9248 21.2191 10.925 31.3025C9.88819 33.0514 8.95122 34.8576 8.11864 36.7125C7.59831 37.8719 7.15875 39.0727 7.27898 40.3524C7.31842 40.5535 7.27898 41.0326 6.63843 41.1529C6.40575 41.2344 6.16426 41.288 5.91898 41.3126C4.36822 41.5894 2.83374 41.9507 1.32242 42.395C1.00587 42.471 0.697576 42.578 0.401978 42.7145C0.246111 42.7826 0.12205 42.9076 0.0550464 43.064C-0.011957 43.2204 -0.0168663 43.3964 0.0413169 43.5563C0.12209 43.795 0.321206 43.9152 0.64242 43.9152H0.880983C0.922309 43.8758 1.0012 43.8758 1.04253 43.8344L1.24164 43.7555L2.12076 43.515C5.52075 42.5942 9.04096 42.1545 12.4391 41.7148L12.7584 41.6753C13.5586 41.555 14.3588 41.4742 15.1196 41.3953C15.8391 41.354 16.5585 41.2751 17.278 41.1942C19.2391 40.9951 21.3579 40.794 23.9972 40.6737C25.7967 40.5948 27.7541 40.514 29.717 40.514C31.1559 40.514 32.4351 40.5553 33.6749 40.6343C36.1169 40.794 37.9146 41.198 39.5939 41.9497L39.6747 41.9891C39.8409 42.0735 40.0153 42.1408 40.195 42.1902C40.2574 42.2188 40.3256 42.2324 40.3941 42.2296C40.4981 42.2345 40.6014 42.211 40.693 42.1616C40.7846 42.1123 40.8612 42.0391 40.9145 41.9497C40.9839 41.8289 41.0096 41.6878 40.9874 41.5503C40.9652 41.4127 40.8963 41.287 40.7924 41.1942Z" fill="white"/>
<path d="M49.6289 31.3927H49.5087C49.301 31.4515 49.1002 31.5321 48.9095 31.6332C48.346 31.9132 47.7486 32.197 46.9897 32.5935C45.977 33.2025 44.9075 33.7116 43.7964 34.1137C43.1188 34.3532 42.42 34.5275 41.7094 34.6342H41.5892C41.4729 34.6475 41.3553 34.6284 41.2492 34.5789C41.1431 34.5295 41.0528 34.4518 40.9881 34.3542C40.91 34.2694 40.8573 34.1644 40.836 34.0511C40.8147 33.9378 40.8258 33.8208 40.8679 33.7134C40.987 33.261 41.148 32.8206 41.3487 32.398C41.4118 32.2869 41.4415 32.16 41.4345 32.0324C41.4276 31.9048 41.3841 31.7819 41.3093 31.6783C41.261 31.5819 41.1866 31.5008 41.0947 31.4444C41.0027 31.3879 40.8968 31.3583 40.789 31.3589C40.7673 31.3562 40.7452 31.3583 40.7244 31.3652C40.7037 31.372 40.6846 31.3833 40.6687 31.3983H40.4283C40.0195 31.389 39.6244 31.2487 39.3012 30.9981C38.8181 30.6775 38.2505 30.5081 37.6707 30.5114C35.272 30.5114 33.1512 31.8268 31.6315 34.1907C31.4693 34.441 31.3861 34.7344 31.393 35.0326C31.393 35.5512 31.5921 35.8725 32.1124 36.1112C32.3407 36.2075 32.5843 36.2623 32.8319 36.2728C33.0074 36.2622 33.1816 36.2351 33.3522 36.192C33.8312 36.0717 34.391 35.912 34.9921 35.7128C35.9572 35.3598 36.8931 34.9313 37.791 34.4313L37.9112 34.3523L38.1103 34.2321C38.404 34.021 38.7507 33.8961 39.1115 33.8713H39.3501L39.3914 34.1118C39.4685 34.5342 39.6171 34.9403 39.831 35.3126C40.1503 35.7523 40.6312 35.912 41.3112 35.912C42.3105 35.9044 43.2999 35.7133 44.2303 35.3483C45.4173 34.8901 46.5671 34.341 47.6697 33.7059C48.4211 33.3057 49.1894 32.9054 49.9896 32.5465C50.1057 32.4895 50.1998 32.3959 50.2575 32.2801C50.3152 32.1643 50.3333 32.0328 50.3089 31.9057C50.2647 31.7591 50.1749 31.6303 50.0527 31.5381C49.9304 31.4459 49.782 31.395 49.6289 31.3927ZM38.1103 32.6724L37.8717 32.8735C36.7314 33.5378 35.5413 34.1126 34.3121 34.5929C34.1825 34.6359 34.0481 34.663 33.912 34.6737H33.7917C33.7205 34.669 33.6511 34.6486 33.5887 34.6138C33.5264 34.579 33.4725 34.5308 33.4311 34.4726C33.3914 34.3836 33.3648 34.2893 33.3522 34.1926C33.3491 34.0745 33.3922 33.9599 33.4724 33.8732C34.6314 32.6329 35.8712 31.9527 37.3514 31.8324H37.5111C37.5918 31.8324 37.7121 31.8738 37.8304 31.8738C37.9049 31.8987 37.9726 31.9405 38.0283 31.9959C38.084 32.0513 38.1262 32.1189 38.1516 32.1932C38.1852 32.2702 38.1991 32.3544 38.1918 32.4381C38.1846 32.5218 38.1566 32.6023 38.1103 32.6724Z" fill="white"/>
<path d="M153.039 30.8872C152.997 30.7708 152.921 30.6699 152.82 30.5983C152.719 30.5267 152.599 30.4879 152.475 30.487C152.357 30.487 152.237 30.5264 152.117 30.5264C151.316 30.5264 150.557 30.9267 149.797 31.1259C148.157 31.5675 146.477 31.8869 144.838 32.4074C143.181 32.9198 141.498 33.3469 139.798 33.6871C139.601 33.7335 139.4 33.7606 139.199 33.7679C138.779 33.7562 138.368 33.6462 137.998 33.4466C137.92 33.3962 137.86 33.3234 137.824 33.2379C137.789 33.1524 137.78 33.0581 137.799 32.9674C137.839 32.8077 137.919 32.6066 138.118 32.5672C138.262 32.5246 138.41 32.4975 138.56 32.4864H138.678C139.918 32.4864 141.038 31.8061 141.838 30.767C141.957 30.6301 142.065 30.4829 142.159 30.3272C142.439 29.8067 142.478 29.2862 142.238 28.886C142.109 28.6736 141.927 28.4989 141.709 28.3795C141.492 28.2601 141.246 28.2001 140.998 28.2057H140.759C140.234 28.1835 139.711 28.294 139.24 28.527C138.392 28.9695 137.643 29.5808 137.04 30.3235C136.764 30.6453 136.547 31.0129 136.398 31.4096C135.073 31.8813 133.749 32.3736 132.425 32.8039C130.986 33.2831 129.795 33.5236 128.668 33.5236H128.268C128.027 33.5236 127.787 33.4842 127.548 33.4842C127.216 33.4758 126.894 33.3634 126.628 33.1629C126.147 32.8039 125.908 32.2026 126.064 31.7234C126.141 31.447 126.284 31.1934 126.48 30.9843C126.676 30.7751 126.921 30.6167 127.191 30.5227C127.294 30.482 127.401 30.4549 127.511 30.4419C127.751 30.4419 128.031 30.5621 128.031 30.8027C128.031 30.8421 128.071 30.8835 128.071 30.9229C128.071 31.0037 128.151 31.0827 128.191 31.1635C128.243 31.2566 128.318 31.3349 128.41 31.3908C128.501 31.4467 128.604 31.4784 128.711 31.4829H128.751C128.886 31.4844 129.018 31.4368 129.122 31.3487C129.225 31.2607 129.294 31.1382 129.314 31.0037C129.381 30.8237 129.408 30.6315 129.395 30.44C129.235 29.6019 128.644 29.0814 127.836 29.0814H127.742C126.782 29.0814 126.023 29.5211 125.3 30.44C125.177 30.5968 125.07 30.7648 124.979 30.9417C124.843 30.9582 124.71 30.9917 124.582 31.0413L124.019 31.2818L123.179 31.6408L119.698 33.2004L118.058 33.922L117.779 34.0423C117.716 34.0882 117.649 34.1284 117.579 34.1625C117.452 34.2115 117.316 34.2382 117.179 34.2415C117.03 34.2433 116.886 34.1859 116.779 34.0817C116.706 34.0025 116.656 33.9046 116.635 33.7989C116.614 33.6932 116.622 33.5836 116.659 33.4823V33.441L116.779 32.9618C116.855 32.7428 116.895 32.5132 116.899 32.2815V32.0899C116.908 31.9558 116.895 31.8213 116.86 31.6915C116.74 31.0507 116.34 30.6899 115.66 30.6899H115.579C115.338 30.6831 115.098 30.697 114.859 30.7313C114.138 30.8568 113.429 31.0455 112.741 31.295L110.18 32.1744L108.661 32.7382L106.991 33.3301C106.944 33.3629 106.887 33.3776 106.831 33.3714C106.751 33.3761 106.67 33.3641 106.594 33.3363C106.519 33.3085 106.45 33.2655 106.391 33.2098C106.323 33.1175 106.286 33.0055 106.286 32.8904C106.286 32.7753 106.323 32.6633 106.391 32.5709L106.991 31.6502C107.134 31.4694 107.267 31.2812 107.391 31.0864L107.511 30.9267C107.674 30.7043 107.808 30.4625 107.911 30.207C107.936 30.0824 107.927 29.9534 107.885 29.8336C107.842 29.7139 107.768 29.6078 107.671 29.5267C107.584 29.4463 107.469 29.4032 107.351 29.4065C107.192 29.4175 107.039 29.4728 106.91 29.5662C106.805 29.6771 106.711 29.7979 106.63 29.927L105.879 30.9267L105.678 31.2461C105.659 31.2743 105.642 31.3025 105.621 31.3288C105.163 31.5543 104.665 31.7948 104.066 32.1087C103.053 32.7179 101.984 33.2271 100.873 33.6289C100.198 33.8683 99.5013 34.0426 98.7931 34.1494H98.6729C98.5569 34.163 98.4394 34.144 98.3335 34.0945C98.2277 34.0451 98.1377 33.9671 98.0736 33.8694C97.9955 33.7846 97.9428 33.6796 97.9216 33.5663C97.9003 33.453 97.9114 33.336 97.9534 33.2286C98.0716 32.7759 98.2326 32.3354 98.4343 31.9132C98.4975 31.8021 98.5272 31.675 98.5199 31.5473C98.5126 31.4196 98.4685 31.2967 98.393 31.1935C98.3465 31.0958 98.2729 31.0136 98.181 30.9566C98.089 30.8997 97.9827 30.8703 97.8745 30.8722C97.8527 30.8693 97.8304 30.8716 97.8096 30.8787C97.7887 30.8859 97.7698 30.8978 97.7543 30.9135H97.4988C97.0899 30.9046 96.6948 30.7643 96.3718 30.5133C95.8855 30.1926 95.3143 30.025 94.7319 30.0322C93.4397 30.0333 92.1782 30.4264 91.114 31.1597C90.9564 31.2098 90.8031 31.2727 90.6557 31.3476L90.5354 31.389C90.2161 31.5092 89.9362 31.6689 89.615 31.7892C88.3001 32.3529 86.9363 32.9486 85.6571 33.5894C84.9358 33.9483 84.2163 34.3091 83.5363 34.6286L83.0573 34.8691L82.9371 34.9086C82.7272 35.0229 82.4954 35.0914 82.2571 35.1096H82.0561L81.8965 35.0683L81.8176 34.9086C81.7292 34.5657 81.7429 34.2045 81.857 33.8694C81.872 33.8535 81.8834 33.8345 81.8902 33.8137C81.897 33.7929 81.8992 33.7709 81.8965 33.7491C82.0508 33.3287 82.0923 32.8752 82.0167 32.4338C81.9887 32.0797 81.8298 31.7487 81.5711 31.5055C81.3123 31.2623 80.9722 31.1243 80.6172 31.1184C80.5221 31.1091 80.4262 31.1226 80.3373 31.1578C80.0608 31.2006 79.7915 31.2815 79.5371 31.3984L79.3775 31.4378C78.4176 31.7573 77.499 32.2383 76.5786 32.678L74.099 33.8788L73.898 33.9972C73.5964 34.1381 73.2705 34.2198 72.9381 34.2377C72.8446 34.2406 72.7519 34.2201 72.6682 34.1781C72.5846 34.1361 72.5127 34.0739 72.4591 33.9972C72.4135 33.9268 72.386 33.8462 72.3791 33.7626C72.3722 33.6789 72.3861 33.5949 72.4197 33.518L72.4591 33.3977C72.5718 33.0247 72.719 32.663 72.8987 32.3172C72.9175 32.2797 72.9381 32.2421 72.9588 32.2045C73.0703 32.0993 73.143 31.9596 73.1654 31.808C75.4972 27.4045 78.6038 23.4577 82.336 20.1574L82.4976 19.9977C82.681 19.8934 82.8329 19.7415 82.9371 19.558C82.9967 19.4761 83.0288 19.3774 83.0288 19.2761C83.0288 19.1748 82.9967 19.0761 82.9371 18.9942C82.8987 18.9014 82.8343 18.8217 82.7517 18.7647C82.669 18.7077 82.5716 18.6758 82.4713 18.6729H82.4318C82.3354 18.6633 82.2381 18.6764 82.1477 18.7114C82.0573 18.7463 81.9764 18.802 81.9115 18.874L81.5527 19.1539C81.192 19.4734 80.7919 19.7947 80.4256 20.1536C78.8646 21.5995 77.4328 23.1789 76.1465 24.874C74.409 27.1102 73.0189 29.1866 71.9726 31.2461C71.935 31.2631 71.8975 31.28 71.8599 31.2931C71.6928 31.3567 71.5323 31.4366 71.3809 31.5318L70.2538 31.932C68.7736 32.4525 67.2934 33.0125 65.8151 33.4936C64.3743 33.9728 63.174 34.2133 62.0582 34.2133H61.6581C61.4195 34.2133 61.1791 34.1738 60.9386 34.1738C60.6064 34.1654 60.2851 34.0531 60.0201 33.8525C59.5392 33.4936 59.2987 32.8923 59.4565 32.4131C59.5339 32.137 59.6768 31.8836 59.873 31.6746C60.0692 31.4655 60.313 31.3069 60.5836 31.2123C60.6867 31.1714 60.7947 31.1443 60.9048 31.1315C61.1452 31.1315 61.4251 31.2518 61.4251 31.4923C61.4251 31.5318 61.4646 31.5731 61.4646 31.6126C61.4646 31.6934 61.5454 31.7723 61.5848 31.8531C61.637 31.9464 61.7123 32.0247 61.8034 32.0806C61.8945 32.1366 61.9983 32.1682 62.1051 32.1726H62.1446C62.2805 32.1741 62.4124 32.1264 62.5159 32.0384C62.6195 31.9503 62.6877 31.8278 62.7081 31.6934C62.7737 31.5131 62.8012 31.3211 62.7889 31.1296C62.6273 30.2915 62.0281 29.771 61.2279 29.771H61.149C60.1891 29.771 59.4283 30.2107 58.707 31.1296C58.1078 31.8907 57.9462 32.7701 58.2675 33.612C58.5887 34.4538 59.3062 35.1716 60.1459 35.3314C60.6312 35.448 61.1272 35.5148 61.6261 35.5306H61.7464C63.0613 35.5306 64.3856 35.2919 65.986 34.8109C67.6879 34.2997 69.3672 33.7585 71.2043 33.0163C71.1423 33.1892 71.0841 33.3658 71.0296 33.5537C70.9512 33.7724 70.9286 34.0072 70.9637 34.2369C70.9988 34.4665 71.0905 34.6838 71.2306 34.8691C71.3776 35.0842 71.5734 35.2615 71.8019 35.3866C72.0304 35.5117 72.2852 35.581 72.5455 35.5888H72.6658C73.1342 35.5971 73.5987 35.5015 74.0258 35.3088L76.2724 34.3148C76.6725 34.1137 77.0726 33.9145 77.4333 33.7153C77.9123 33.4748 78.3932 33.2737 78.8722 33.0351C79.1915 32.8797 79.5265 32.7587 79.8715 32.6743C79.9481 32.645 80.0299 32.6316 80.1119 32.6348C80.1925 32.6269 80.2738 32.6371 80.3499 32.6647C80.4259 32.6924 80.4948 32.7367 80.5515 32.7945C80.6089 32.8586 80.6499 32.9358 80.6708 33.0193C80.6918 33.1028 80.6921 33.1901 80.6717 33.2737C80.6483 33.4809 80.5945 33.6835 80.512 33.875V34.0348L80.3524 34.5553C80.2716 34.9142 80.1514 35.275 80.1119 35.5944C80.0709 35.7466 80.0677 35.9065 80.1028 36.0601C80.1378 36.2138 80.21 36.3565 80.3129 36.4758C80.5382 36.696 80.8377 36.824 81.1526 36.8347H81.192C81.4665 36.8324 81.738 36.7782 81.9923 36.6749C82.5933 36.4873 83.1813 36.26 83.7524 35.9947L85.751 35.0345C86.7372 34.5421 87.7704 34.0254 88.8129 33.5593C88.7791 33.6101 88.7415 33.6608 88.7077 33.7134C88.5451 33.963 88.4614 34.2556 88.4673 34.5534C88.4673 35.0739 88.6683 35.3934 89.1886 35.6339C89.4173 35.7287 89.6607 35.7828 89.908 35.7936C90.0837 35.7839 90.258 35.7568 90.4284 35.7128C90.9074 35.5944 91.4672 35.4328 92.0683 35.2337C93.0334 34.8813 93.9692 34.4534 94.8671 33.954L94.9874 33.8732L95.1865 33.7529C95.4804 33.5425 95.8271 33.4182 96.1877 33.394H96.4262L96.4657 33.6326C96.5432 34.0552 96.6925 34.4613 96.9071 34.8334C97.2265 35.2731 97.7073 35.4328 98.3855 35.4328C99.3854 35.4254 100.376 35.2344 101.306 34.8691C102.419 34.4429 103.498 33.9335 104.534 33.3451C104.454 33.5181 104.396 33.6997 104.359 33.8863C104.337 34.0263 104.343 34.1693 104.377 34.3068C104.411 34.4444 104.473 34.5736 104.558 34.6868C104.645 34.7931 104.755 34.8775 104.881 34.9333C105.006 34.9891 105.142 35.0147 105.279 35.0082H105.599C105.87 35.0129 106.141 34.9722 106.399 34.8879C106.633 34.8024 106.874 34.7352 107.118 34.6868C107.479 34.5666 107.798 34.4482 108.157 34.3279L110.158 33.6063C111.157 33.2474 112.198 32.8547 113.236 32.4789C113.637 32.3605 114.076 32.2402 114.677 32.1199C114.743 32.1022 114.809 32.0884 114.876 32.0786C114.97 32.0754 115.063 32.0958 115.147 32.1378C115.231 32.1798 115.303 32.2421 115.357 32.3191C115.416 32.4137 115.454 32.5201 115.468 32.6308C115.481 32.7415 115.47 32.8538 115.436 32.9599C115.397 33.1196 115.357 33.2794 115.316 33.4804L115.077 34.3204C115.031 34.523 115.031 34.7336 115.077 34.9363C115.123 35.139 115.214 35.3286 115.344 35.4911C115.543 35.7711 115.908 35.8913 116.343 35.8913H116.543C116.887 35.841 117.223 35.7469 117.544 35.6114L118.543 35.1322L119.982 34.5309L122.107 33.5706C122.937 33.1948 123.82 32.7795 124.736 32.4262C124.763 32.5984 124.807 32.7672 124.87 32.9298C125.191 33.7717 125.91 34.4914 126.748 34.6511C127.233 34.7678 127.729 34.8345 128.228 34.8503H128.349C129.664 34.8503 130.978 34.6117 132.586 34.1306C133.781 33.7717 134.961 33.3977 136.195 32.9524C136.231 33.2867 136.343 33.6082 136.524 33.892C136.882 34.4557 137.562 34.8127 138.323 34.9725C138.534 35.0081 138.748 35.0219 138.962 35.0138H139.563C139.805 35.0063 140.045 34.9793 140.282 34.933C141.296 34.7458 142.299 34.5056 143.288 34.2133C144.128 33.9728 144.967 33.7736 145.767 33.533C146.647 33.2531 147.526 33.052 148.367 32.8133C149.445 32.492 150.526 32.2928 151.606 32.0128L152.087 31.8926C152.383 31.8555 152.661 31.7298 152.885 31.5318C152.975 31.4544 153.039 31.3503 153.067 31.2345C153.094 31.1187 153.085 30.9972 153.039 30.8872ZM95.1827 32.1895L94.9385 32.3905C93.799 33.0557 92.6095 33.6312 91.3807 34.1118C91.2509 34.1539 91.1166 34.181 90.9806 34.1926H90.8604C90.7891 34.188 90.7198 34.1676 90.6574 34.1328C90.595 34.098 90.5412 34.0497 90.4997 33.9915C90.4602 33.9025 90.4337 33.8082 90.4209 33.7116C90.4171 33.5934 90.4604 33.4785 90.5411 33.3921C90.7817 33.1326 91.039 32.8891 91.3112 32.663C91.555 32.6199 91.7773 32.4962 91.9424 32.3116C92.0191 32.2487 92.0829 32.1715 92.1302 32.0842C92.8281 31.665 93.6141 31.4141 94.4257 31.3514H94.5854C94.6661 31.3514 94.7845 31.3908 94.9047 31.3908C94.9792 31.4208 95.0463 31.4664 95.1018 31.5245C95.1572 31.5826 95.1996 31.6518 95.2261 31.7276C95.2526 31.8034 95.2626 31.884 95.2554 31.964C95.2483 32.0439 95.2241 32.1215 95.1846 32.1913L95.1827 32.1895ZM139.08 30.2107C139.401 29.8894 139.681 29.6902 140.04 29.6902H140.081C140.137 29.6944 140.191 29.7109 140.239 29.7385C140.288 29.7662 140.329 29.8042 140.361 29.8499L140.48 29.9702L140.44 30.1299C140.442 30.1671 140.436 30.2042 140.422 30.2389C140.409 30.2735 140.388 30.3049 140.361 30.331C140.131 30.585 139.842 30.7786 139.52 30.8947H139.441C139.327 30.8794 139.217 30.8382 139.121 30.7745L139.001 30.6937L138.96 30.534C138.963 30.4159 139.005 30.3022 139.08 30.2107Z" fill="white"/>
<path d="M89.7977 65.3298C89.6794 65.3298 89.561 65.3692 89.4427 65.3692C88.6519 65.3692 87.9005 65.7638 87.151 65.9611C85.5299 66.3971 83.8712 66.7128 82.2501 67.2258C80.6136 67.7329 78.9521 68.1557 77.2722 68.4923C77.0774 68.5381 76.8786 68.5645 76.6786 68.5712C76.2641 68.5599 75.8581 68.4511 75.4933 68.2537C75.4164 68.204 75.3564 68.1321 75.3212 68.0475C75.286 67.963 75.2772 67.8698 75.2961 67.7801C75.3355 67.6223 75.4144 67.425 75.6117 67.3855C75.7536 67.343 75.8997 67.3159 76.0475 67.3047H76.1658C77.3906 67.3047 78.497 66.6339 79.2878 65.6135C79.4057 65.4785 79.5113 65.3332 79.6034 65.1794C79.8795 64.6645 79.919 64.1515 79.6823 63.755C79.5548 63.5456 79.3746 63.3734 79.1596 63.2556C78.9447 63.1379 78.7025 63.0788 78.4575 63.0842H78.2208C77.7014 63.0624 77.1848 63.1709 76.7181 63.3999C75.8794 63.8379 75.1397 64.4436 74.5447 65.1794C74.3468 65.4146 74.1778 65.6726 74.0413 65.948C72.3281 66.7241 69.5443 67.7576 67.5926 68.4209C67.4649 68.4659 67.3314 68.4925 67.1962 68.4998H67.0779C66.9548 68.4914 66.8389 68.4386 66.7519 68.3512C66.6648 68.2637 66.6124 68.1476 66.6045 68.0244C66.5823 67.768 66.6229 67.51 66.7229 67.2728C66.9595 66.5606 67.3935 65.8879 67.7109 65.3354C68.6502 63.7137 69.8035 62.1728 71.109 60.5117C71.7007 59.76 72.3338 59.0084 72.9649 58.2981L74.4677 56.5204C74.8227 56.1239 75.1383 55.6898 75.4558 55.2558C75.5094 55.1897 75.5419 55.109 75.5489 55.0241C75.556 54.9393 75.5372 54.8543 75.4952 54.7803C75.4543 54.6549 75.3749 54.5455 75.2684 54.4676C75.1619 54.3897 75.0336 54.3472 74.9016 54.3463C74.7546 54.3454 74.613 54.402 74.5071 54.5041L74.1108 54.8987L73.9925 55.019C73.1246 55.8871 72.4127 56.7966 71.6219 57.6667C70.1191 59.2865 68.699 60.9476 67.2357 62.5674C66.9201 62.9245 66.644 63.2402 66.2965 63.5953C66.0598 63.834 65.8231 64.0313 65.6258 64.2681C65.5393 64.3871 65.4265 64.4847 65.2962 64.5531C65.1659 64.6216 65.0216 64.659 64.8745 64.6627C64.6827 64.6419 64.4959 64.5886 64.3222 64.5048C64.0218 64.3652 63.7068 64.2593 63.383 64.1891C63.1753 64.141 62.9631 64.1145 62.7499 64.1102C60.8922 64.1102 58.839 65.6905 58.3243 67.0736C58.0876 67.7069 58.0482 68.1804 58.2454 68.6558C58.4821 69.2477 58.7996 69.5653 59.3913 69.5653H59.5096C59.8856 69.5477 60.2575 69.4807 60.616 69.3661C61.683 69.0899 62.6316 68.4266 63.6591 67.7463C63.9108 67.6112 64.1491 67.4526 64.371 67.2728C64.483 67.1841 64.6017 67.1043 64.7261 67.0341L64.7655 66.9947C64.805 66.9552 64.8839 66.9947 64.9233 66.9947C64.9756 66.989 65.0285 66.9969 65.0769 67.0176C65.1253 67.0384 65.1675 67.0712 65.1994 67.113C65.2396 67.1622 65.2677 67.2202 65.2814 67.2822C65.2951 67.3442 65.294 67.4085 65.2783 67.4701V67.7068C65.2783 67.8948 65.2389 68.062 65.2389 68.2593C65.2383 68.6394 65.3796 69.006 65.6352 69.2872C65.7879 69.4618 65.9763 69.6016 66.1875 69.6972C66.3988 69.7928 66.6281 69.842 66.86 69.8415H66.8807C67.1061 69.8347 67.3304 69.8083 67.5513 69.7626C69.0972 69.4995 71.5693 68.7159 73.6994 67.6636C73.7227 68.0298 73.837 68.3844 74.0319 68.6953C74.3869 69.2477 75.0594 69.6048 75.8089 69.7626C76.0181 69.7966 76.2302 69.8098 76.4419 69.8021H77.0355C77.274 69.7953 77.5115 69.7689 77.7456 69.7232C78.7453 69.5374 79.7348 69.2997 80.7098 69.011C81.5401 68.7742 82.3685 68.5769 83.1518 68.3382C84.0215 68.062 84.8912 67.8647 85.7196 67.6279C86.7866 67.3104 87.8535 67.113 88.913 66.8368L89.3882 66.7184C89.6813 66.6816 89.9568 66.558 90.179 66.3633C90.2677 66.2871 90.3306 66.1853 90.3588 66.0718C90.3871 65.9583 90.3794 65.8389 90.3368 65.73C90.2976 65.6168 90.2252 65.518 90.129 65.4466C90.0329 65.3752 89.9174 65.3345 89.7977 65.3298ZM76.5603 65.0535C76.8777 64.736 77.1539 64.5386 77.4995 64.5386H77.539C77.5937 64.5431 77.6468 64.5596 77.6945 64.5869C77.7423 64.6142 77.7834 64.6516 77.8151 64.6965L77.9334 64.8149L77.894 64.9727C77.8958 65.0096 77.8897 65.0465 77.8761 65.0808C77.8625 65.1152 77.8417 65.1462 77.8151 65.1719C77.5887 65.4216 77.3041 65.6113 76.9867 65.7244H76.9059C76.7931 65.7093 76.6852 65.6688 76.5903 65.606L76.472 65.5271L76.4326 65.3692C76.4394 65.2525 76.485 65.1413 76.5622 65.0535H76.5603ZM63.3642 66.2787L63.2459 66.4366C62.4156 67.2671 61.4275 68.0564 60.3211 68.0564C60.2817 68.0564 60.2422 68.0958 60.1633 68.0958C60.0529 68.0986 59.9439 68.0713 59.8477 68.0169C59.7275 67.8985 59.6486 67.8591 59.6092 67.7407C59.5646 67.5958 59.5787 67.4392 59.6486 67.3047C60.2028 66.2392 61.2303 65.3692 62.5734 65.3692H62.6917C62.7601 65.3588 62.8299 65.3728 62.8889 65.4087C62.9284 65.4481 63.0467 65.4087 63.1275 65.4481C63.2446 65.492 63.3424 65.5759 63.4036 65.6849C63.4618 65.7748 63.4896 65.8811 63.4828 65.988C63.476 66.0949 63.4351 66.1968 63.3661 66.2787H63.3642Z" fill="white"/>
<path d="M130.443 60.3087H130.483C130.641 60.3087 130.798 60.1903 130.998 60.0325L131.037 59.993C131.645 59.4524 132.306 58.9758 133.011 58.5705C133.094 58.541 133.164 58.4847 133.21 58.4108C133.308 58.3415 133.379 58.2418 133.413 58.1274C133.447 58.013 133.442 57.8905 133.398 57.7794C133.353 57.6582 133.274 57.5527 133.171 57.4756C133.067 57.3986 132.943 57.3533 132.814 57.3453H132.696C132.486 57.3888 132.286 57.4689 132.104 57.5821C131.436 58.0073 130.802 58.4829 130.207 59.0046C130.098 59.1233 130.005 59.256 129.931 59.3992C129.873 59.4946 129.842 59.6042 129.842 59.7159C129.842 59.8275 129.873 59.9371 129.931 60.0325C129.983 60.1209 130.058 60.1933 130.149 60.242C130.239 60.2907 130.341 60.3138 130.443 60.3087Z" fill="white"/>
<path d="M188.96 64.736C188.921 64.6217 188.848 64.5222 188.751 64.4507C188.653 64.3792 188.536 64.3391 188.416 64.3357C188.297 64.3357 188.179 64.3752 188.059 64.3752C187.27 64.3752 186.519 64.7698 185.767 64.9671C184.148 65.403 182.487 65.7187 180.868 66.2336C179.231 66.7392 177.569 67.1613 175.888 67.4983C175.694 67.5439 175.496 67.5703 175.297 67.5772C174.882 67.5656 174.477 67.4575 174.111 67.2615C174.036 67.2102 173.978 67.1375 173.944 67.0527C173.911 66.9679 173.904 66.875 173.923 66.7861C173.963 66.6282 174.042 66.4309 174.239 66.3915C174.38 66.3495 174.526 66.3231 174.673 66.3125H174.793C176.018 66.3125 177.124 65.6398 177.913 64.6119C178.032 64.4774 178.139 64.3321 178.231 64.1779C178.507 63.663 178.546 63.15 178.31 62.7554C178.182 62.5456 178.002 62.373 177.787 62.2549C177.572 62.1368 177.33 62.0774 177.085 62.0826H176.846C176.327 62.0605 175.81 62.1691 175.344 62.3983C174.513 62.8321 173.78 63.4306 173.189 64.1572C171.863 64.5687 170.42 64.4954 168.825 64.5725C167.956 64.6119 167.165 64.6514 166.383 64.6514H166.186C165.388 64.6551 164.621 64.3422 164.052 63.7814C163.5 63.2684 163.421 62.5956 163.421 61.9643V61.8459C163.421 61.331 163.145 61.1337 162.946 61.0548C162.858 61.0195 162.764 61.0059 162.67 61.0153C162.557 61.0185 162.447 61.0447 162.345 61.0922C162.244 61.1397 162.153 61.2075 162.078 61.2915C161.934 61.4259 161.802 61.5717 161.682 61.7275C161.524 61.9151 161.379 62.1129 161.248 62.3194C161.115 62.5487 160.956 62.7613 160.772 62.9527C160.724 63.0129 160.685 63.0792 160.654 63.15C160.536 63.3868 160.378 63.7419 160.023 63.7419C159.993 63.7378 159.965 63.7239 159.944 63.7024C159.429 63.6235 159.469 63.1105 159.469 62.9508L159.429 62.4359C159.429 62.1597 159.114 62.0413 158.838 62.0413C158.713 62.0288 158.588 62.0619 158.487 62.1345C158.385 62.2071 158.312 62.3142 158.284 62.4359C158.23 62.5906 158.191 62.7497 158.165 62.9113C158.148 63.3551 158.085 63.796 157.977 64.2267C157.62 64.2721 157.26 64.2979 156.899 64.3038H154.607C153.162 64.3001 151.728 64.032 150.379 63.5127C150.09 63.3948 149.782 63.328 149.47 63.3153C149.025 63.3219 148.589 63.4443 148.206 63.6705C147.415 64.1065 146.703 64.58 145.952 64.9746L145.794 65.0554C145.003 65.45 144.103 65.995 143.106 66.3595C142.435 66.5963 141.802 66.8331 141.171 66.8331H141.079C140.991 66.835 140.904 66.8194 140.823 66.7871C140.742 66.7548 140.668 66.7066 140.605 66.6452C140.489 66.5005 140.433 66.317 140.448 66.1322C140.479 65.6729 140.643 65.2327 140.921 64.8656C141.05 64.666 141.115 64.4322 141.109 64.1948C141.121 64.0759 141.092 63.9564 141.028 63.8558C140.963 63.7551 140.867 63.6792 140.754 63.6404C140.682 63.5968 140.601 63.5698 140.517 63.5615C140.444 63.5577 140.371 63.5699 140.303 63.5971C140.235 63.6244 140.173 63.6661 140.123 63.7194C140.019 63.8154 139.926 63.9219 139.845 64.0369C139.711 64.2382 139.594 64.45 139.495 64.6702C138.92 64.8262 138.194 65.1381 137.87 65.2621L137.713 65.3016C135.776 66.0532 133.8 66.7241 131.863 67.3573C131.035 67.5941 130.204 67.8703 129.421 68.1466C129.215 68.2215 129.004 68.2842 128.79 68.3345H128.632C128.433 68.3345 128.236 68.295 128.157 68.1466C128.097 68.0614 128.056 67.9649 128.036 67.863C128.015 67.7611 128.016 67.6561 128.039 67.5547C128.238 66.8465 128.503 66.1583 128.829 65.4989C128.95 65.3096 129.015 65.0901 129.017 64.8656C129.022 64.7577 128.999 64.6503 128.951 64.5537C128.902 64.457 128.83 64.3743 128.741 64.3132C128.638 64.2829 128.531 64.2696 128.424 64.2737C128.296 64.2767 128.173 64.3179 128.069 64.3921C128.049 64.4093 128.03 64.4275 128.012 64.4466C127.603 64.4785 127.175 64.5499 126.647 64.5499H124.361C122.915 64.5467 121.483 64.2792 120.134 63.7607C119.845 63.6416 119.537 63.5742 119.225 63.5615C118.78 63.5678 118.344 63.6902 117.961 63.9167C117.17 64.3526 116.458 64.8262 115.707 65.232L115.549 65.311C114.76 65.7056 113.858 66.2599 112.863 66.6151C112.19 66.8519 111.559 67.0886 110.926 67.0886H110.847C110.759 67.0894 110.672 67.0723 110.59 67.0383C110.509 67.0044 110.435 66.9544 110.374 66.8913C110.258 66.7467 110.201 66.5632 110.216 66.3783C110.247 65.9195 110.411 65.4799 110.689 65.1137C110.818 64.9133 110.883 64.6789 110.877 64.4409C110.889 64.322 110.861 64.2026 110.796 64.1019C110.732 64.0013 110.635 63.9254 110.522 63.8866C110.45 63.8437 110.369 63.8167 110.285 63.8077C110.212 63.804 110.138 63.8163 110.07 63.8439C110.001 63.8715 109.94 63.9136 109.889 63.9674C109.787 64.0638 109.695 64.1695 109.613 64.2831C109.03 65.1401 108.777 66.1796 108.901 67.2089C108.98 67.8797 109.465 68.3552 110.126 68.3552C110.246 68.3552 110.404 68.3946 110.562 68.3946H110.798C111.737 68.3946 112.695 68.1165 113.841 67.6035C114.908 67.13 115.896 66.5362 116.924 66.0213L117.003 65.9818C117.239 65.8634 117.437 65.7056 117.673 65.5872L118.504 65.1137C118.722 64.9932 118.966 64.925 119.216 64.9145C119.419 64.9154 119.62 64.9562 119.807 65.0347C120.795 65.4294 121.547 65.4688 122.296 65.6661L122.456 65.7056C123.363 65.9424 124.391 65.9029 125.379 65.9029C125.564 65.908 125.75 65.8948 125.933 65.8634H127.233C127.015 66.3878 126.844 66.9305 126.722 67.4851C126.68 67.7596 126.653 68.0363 126.643 68.3138C126.643 69.3022 127.156 69.7777 128.183 69.7777H128.305C128.662 69.7777 129.096 69.6198 129.53 69.4995L129.648 69.4601C130.005 69.3417 130.36 69.1839 130.755 69.0655C131.427 68.8287 132.139 68.5919 132.849 68.3946C134.188 68.0034 135.505 67.5411 136.794 67.0097C137.386 66.7729 138.058 66.5362 138.691 66.2994C138.833 66.2559 138.971 66.2045 139.106 66.1453C139.088 66.4203 139.094 66.6964 139.125 66.9702C139.204 67.643 139.678 68.1165 140.35 68.1165C140.468 68.1165 140.626 68.156 140.784 68.156H141.021C141.96 68.156 142.918 67.8797 144.064 67.3667C145.131 66.8913 146.119 66.2994 147.146 65.7845L147.225 65.7451C147.462 65.6267 147.659 65.4688 147.898 65.3504L148.726 64.875C148.923 64.7591 149.145 64.6915 149.374 64.6778C149.603 64.6641 149.831 64.7046 150.041 64.7961C151.027 65.1926 151.778 65.2321 152.53 65.4294L152.688 65.4688C153.597 65.7056 154.624 65.6661 155.612 65.6661C155.797 65.6713 155.982 65.6581 156.165 65.6267H157.805C157.743 66.1472 157.523 66.6245 157.388 67.13C157.288 67.5309 157.248 67.9444 157.269 68.357C157.257 68.4757 157.285 68.5951 157.35 68.6955C157.414 68.7959 157.511 68.8713 157.624 68.9095C157.738 68.9543 157.859 68.9809 157.981 68.9884C158.128 68.9893 158.27 68.9327 158.376 68.8306C158.533 68.6727 158.691 68.5149 158.89 68.2762C159.5 67.5119 160.042 66.6964 160.511 65.839C160.669 65.5628 160.827 65.2865 160.985 65.0498L161.342 64.456C161.41 64.3592 161.463 64.2528 161.499 64.1403C161.553 64.0376 161.632 63.9506 161.729 63.888C161.826 63.8254 161.938 63.7893 162.054 63.7832C162.166 63.7979 162.275 63.8376 162.37 63.8993C162.466 63.9611 162.546 64.0434 162.606 64.1403C163.015 64.7069 163.557 65.165 164.183 65.4748C164.81 65.7846 165.503 65.9367 166.201 65.9179H166.834C168.167 65.9497 169.501 65.8838 170.824 65.7206C171.347 65.6309 171.875 65.5782 172.406 65.5628H172.424C172.424 65.5891 172.411 65.6154 172.404 65.6417C172.216 66.4328 172.285 67.145 172.641 67.6975C172.996 68.2499 173.668 68.607 174.419 68.7648C174.629 68.7988 174.841 68.8121 175.052 68.8043H175.642C175.881 68.7975 176.119 68.7711 176.354 68.7253C177.354 68.5396 178.343 68.3019 179.318 68.0132C180.147 67.7764 180.977 67.5791 181.76 67.3423C182.63 67.0642 183.498 66.8669 184.328 66.6301C185.395 66.3144 186.462 66.1171 187.522 65.839L187.995 65.7206C188.288 65.6846 188.564 65.5608 188.786 65.3655C188.877 65.2917 188.942 65.1914 188.974 65.0786C189.005 64.9658 189 64.846 188.96 64.736ZM175.171 64.0651C175.486 63.7475 175.762 63.5502 176.11 63.5502H176.149C176.204 63.5547 176.257 63.5712 176.305 63.5985C176.353 63.6258 176.394 63.6632 176.426 63.7081L176.544 63.8283L176.504 63.9843C176.507 64.0212 176.501 64.0582 176.487 64.0926C176.473 64.127 176.452 64.158 176.426 64.1835C176.199 64.4336 175.914 64.6235 175.595 64.736H175.516C175.404 64.7209 175.296 64.6804 175.201 64.6176L175.083 64.5387L175.043 64.3808C175.049 64.2643 175.094 64.1532 175.171 64.0651Z" fill="white"/>
</g>
<defs>
<clipPath id="clip0">
<rect width="189" height="99" fill="white"/>
</clipPath>
</defs>
</svg>
