<svg width="19" height="16" viewBox="0 0 19 16" fill="none" xmlns="http://www.w3.org/2000/svg">
<path d="M17.3437 1.29171C16.4617 0.430449 15.2431 0 13.6874 0C13.2568 0 12.8175 0.0746483 12.3696 0.223872C11.9216 0.373205 11.5049 0.574674 11.1198 0.828135C10.7342 1.08152 10.4029 1.31948 10.1249 1.54164C9.84725 1.76387 9.58328 2.00003 9.33332 2.24995C9.08326 2.00003 8.81936 1.76387 8.54167 1.54164C8.2638 1.31948 7.9323 1.08167 7.5468 0.828135C7.16138 0.574565 6.74468 0.373241 6.29679 0.223872C5.84894 0.0746847 5.40962 0 4.9791 0C3.42349 0 2.20482 0.430559 1.32291 1.29171C0.440994 2.15279 0 3.34717 0 4.87494C0 5.34023 0.0817263 5.81957 0.24485 6.31237C0.407975 6.80543 0.593866 7.22563 0.802158 7.57278C1.01041 7.9199 1.24658 8.2584 1.51048 8.5883C1.77437 8.91816 1.96723 9.1455 2.08862 9.2705C2.21011 9.39549 2.30563 9.48587 2.37506 9.54147L8.87496 15.8123C9 15.9373 9.15276 16 9.33329 16C9.51381 16 9.66669 15.9373 9.79165 15.8123L16.2812 9.56209C17.8715 7.97207 18.6666 6.40957 18.6666 4.87479C18.6666 3.34691 18.2257 2.15265 17.3437 1.29171ZM15.3749 8.58309L9.33332 14.4059L3.28138 8.57258C1.98274 7.27426 1.33352 6.04147 1.33352 4.87479C1.33352 4.31238 1.40817 3.81578 1.5574 3.38533C1.70673 2.95481 1.89769 2.61269 2.13032 2.35923C2.36298 2.10569 2.64593 1.89926 2.97925 1.73942C3.31276 1.57973 3.63912 1.47206 3.95851 1.41653C4.2779 1.36107 4.61812 1.33331 4.97928 1.33331C5.34034 1.33331 5.7293 1.42175 6.14596 1.59888C6.56255 1.77594 6.94622 1.99817 7.29688 2.2655C7.64761 2.533 7.94795 2.78296 8.19806 3.01552C8.44802 3.24829 8.65627 3.46169 8.82297 3.65616C8.9479 3.80899 9.11817 3.88539 9.33336 3.88539C9.54862 3.88539 9.71871 3.80899 9.84378 3.65616C10.0104 3.46169 10.2189 3.24818 10.4688 3.01552C10.7188 2.78296 11.0192 2.53311 11.3698 2.2655C11.7205 1.99817 12.1042 1.77594 12.521 1.59888C12.9375 1.42178 13.3266 1.33331 13.6877 1.33331C14.0487 1.33331 14.3889 1.36107 14.7084 1.41653C15.0279 1.47202 15.3543 1.57973 15.6877 1.73942C16.021 1.89922 16.304 2.1058 16.5365 2.35923C16.7692 2.61269 16.9602 2.95481 17.1095 3.38533C17.2586 3.81578 17.3333 4.31238 17.3333 4.87479C17.3332 6.04147 16.6806 7.27769 15.3749 8.58309Z" fill="#B79968"/>
</svg>
