<svg width="6" height="8" viewBox="0 0 6 8" fill="none" xmlns="http://www.w3.org/2000/svg">
<path d="M0.606555 0.00019879C0.488317 -0.00240178 0.372207 0.0318738 0.274366 0.0983132C0.176525 0.164752 0.101816 0.260072 0.0606254 0.370933C0.0194347 0.481795 0.0138091 0.602719 0.0445306 0.716926C0.0752521 0.831133 0.140794 0.932884 0.232045 1.00812L3.71377 3.99086L0.232045 6.97255C0.168922 7.01895 0.116058 7.07785 0.0767644 7.14562C0.0374702 7.21339 0.0125922 7.28856 0.00368797 7.36639C-0.00521629 7.44422 0.00204522 7.52303 0.0250177 7.59793C0.0479902 7.67282 0.0861785 7.74219 0.137192 7.80164C0.188205 7.86109 0.250944 7.90931 0.321479 7.94339C0.392015 7.97747 0.468827 7.99662 0.547107 7.99964C0.625386 8.00266 0.703446 7.98953 0.776397 7.96098C0.849349 7.93244 0.915621 7.88914 0.971064 7.83379L4.95732 4.42316C5.01992 4.36973 5.07019 4.30343 5.10466 4.2287C5.13912 4.15397 5.15697 4.07263 5.15697 3.99034C5.15697 3.90804 5.13912 3.8267 5.10466 3.75197C5.07019 3.67724 5.01992 3.61087 4.95732 3.55745L0.971064 0.143531C0.870365 0.0540873 0.741204 0.00323639 0.606555 6.75332e-05V0.00019879Z" fill="#512C36"/>
</svg>
