<svg width="24" height="24" viewBox="0 0 24 24" fill="none" xmlns="http://www.w3.org/2000/svg">
<path d="M12 0C5.38309 0 0 5.38309 0 12C0 18.617 5.38309 24 12 24C18.617 24 24 18.6169 24 12C24 5.38309 18.617 0 12 0ZM12 21.3771C6.82936 21.3771 2.62295 17.1706 2.62295 12C2.62295 6.82962 6.82936 2.62295 12 2.62295C17.1706 2.62295 21.3771 6.82962 21.3771 12C21.3771 17.1706 17.1706 21.3771 12 21.3771Z" fill="#CB9F67"/>
<path d="M13.0389 12.0144V6.98494C13.0389 6.42337 12.5839 5.96829 12.0225 5.96829C11.461 5.96829 11.0059 6.42337 11.0059 6.98494V12.3392C11.0059 12.3552 11.0098 12.3702 11.0106 12.3862C10.9972 12.6626 11.0924 12.9433 11.3036 13.1544L15.0898 16.9404C15.4869 17.3375 16.1306 17.3375 16.5274 16.9404C16.9243 16.5433 16.9245 15.8996 16.5274 15.5028L13.0389 12.0144Z" fill="#CB9F67"/>
</svg>
