<svg width="25" height="24" viewBox="0 0 25 24" fill="none" xmlns="http://www.w3.org/2000/svg">
<path d="M12.1212 0C5.4376 0 0 5.38323 0 12C0 18.6163 5.4376 24 12.1212 24C18.8043 24 24.2424 18.6163 24.2424 12C24.2424 5.38323 18.8053 0 12.1212 0ZM15.1356 12.4225H13.1636V19.381H10.2415C10.2415 19.381 10.2415 15.5788 10.2415 12.4225H8.8524V9.9631H10.2415V8.37235C10.2415 7.23306 10.7883 5.45283 13.1905 5.45283L15.3558 5.46105V7.84838C15.3558 7.84838 14.04 7.84838 13.7842 7.84838C13.5283 7.84838 13.1646 7.97503 13.1646 8.51833V9.96359H15.391L15.1356 12.4225Z" fill="#CB9F67"/>
</svg>
