<svg width="24" height="24" viewBox="0 0 24 24" fill="none" xmlns="http://www.w3.org/2000/svg">
<path d="M12.6004 6H8.40039V18H10.8004V14.4H12.6004C14.8804 14.4 16.8004 12.48 16.8004 10.2C16.8004 7.92 14.8804 6 12.6004 6ZM12.6004 12H10.8004V8.4H12.6004C13.5604 8.4 14.4004 9.24 14.4004 10.2C14.4004 11.16 13.5604 12 12.6004 12Z" fill="#CB9F67"/>
<path d="M20.4 0H3.6C1.56 0 0 1.56 0 3.6V20.4C0 22.44 1.56 24 3.6 24H20.4C22.44 24 24 22.44 24 20.4V3.6C24 1.56 22.44 0 20.4 0ZM21.6 20.4C21.6 21.12 21.12 21.6 20.4 21.6H3.6C2.88 21.6 2.4 21.12 2.4 20.4V3.6C2.4 2.88 2.88 2.4 3.6 2.4H20.4C21.12 2.4 21.6 2.88 21.6 3.6V20.4Z" fill="#CB9F67"/>
</svg>
