<svg width="12" height="8" viewBox="0 0 12 8" fill="none" xmlns="http://www.w3.org/2000/svg">
<path d="M11.9998 0.909833C12.0037 0.732476 11.9523 0.55831 11.8526 0.411549C11.753 0.264788 11.61 0.152724 11.4437 0.0909381C11.2774 0.029152 11.096 0.0207136 10.9247 0.0667959C10.7534 0.112878 10.6008 0.211191 10.4879 0.348067L6.0138 5.57065L1.54126 0.348067C1.47167 0.253383 1.38332 0.174087 1.28167 0.115146C1.18001 0.0562051 1.06725 0.0188881 0.950508 0.0055317C0.833763 -0.0078247 0.715543 0.00306758 0.603203 0.0375263C0.490863 0.071985 0.386814 0.129267 0.297637 0.205787C0.208461 0.282307 0.136123 0.376415 0.085001 0.482218C0.0338792 0.588021 0.005166 0.703241 0.000636033 0.82066C-0.00389488 0.938079 0.0158013 1.05517 0.0586184 1.1646C0.101437 1.27402 0.166385 1.37343 0.2494 1.4566L5.36536 7.43598C5.44549 7.52988 5.54495 7.60528 5.65704 7.65698C5.76914 7.70869 5.89114 7.73546 6.01459 7.73546C6.13803 7.73546 6.26004 7.70869 6.37213 7.65698C6.48422 7.60528 6.58378 7.52988 6.66391 7.43598L11.7848 1.4566C11.919 1.30555 11.9952 1.11181 12 0.909833L11.9998 0.909833Z" fill="#41202A"/>
</svg>
