<svg width="18" height="18" viewBox="0 0 18 18" fill="none" xmlns="http://www.w3.org/2000/svg">
<path d="M15.7252 2.40747H2.27485C1.02052 2.40747 0 3.42799 0 4.68232V13.3175C0 14.5719 1.02052 15.5924 2.27485 15.5924H15.7252C16.9795 15.5924 18 14.5719 18 13.3175V4.68232C18 3.42799 16.9795 2.40747 15.7252 2.40747ZM15.3698 3.87486L9 8.79542L2.63025 3.87486H15.3698ZM15.7252 14.1251H2.27485C1.82964 14.1251 1.46739 13.7628 1.46739 13.3176V4.83082L8.55147 10.3032C8.68353 10.4052 8.84181 10.4562 9 10.4562C9.15819 10.4562 9.31647 10.4052 9.44853 10.3032L16.5326 4.83082V13.3175C16.5326 13.7628 16.1704 14.1251 15.7252 14.1251Z" fill="#A21D1D"/>
</svg>
