<svg width="6" height="8" viewBox="0 0 6 8" fill="none" xmlns="http://www.w3.org/2000/svg">
<path d="M4.54969 0.000137755C4.66793 -0.00246282 4.78404 0.0318128 4.88188 0.0982521C4.97972 0.164691 5.05443 0.260011 5.09562 0.370872C5.13682 0.481734 5.14244 0.602658 5.11172 0.716865C5.081 0.831071 5.01546 0.932823 4.92421 1.00806L1.44248 3.9908L4.92421 6.97249C4.98733 7.01889 5.04019 7.07778 5.07949 7.14555C5.11878 7.21332 5.14366 7.2885 5.15256 7.36633C5.16147 7.44416 5.1542 7.52297 5.13123 7.59787C5.10826 7.67276 5.07007 7.74212 5.01906 7.80158C4.96805 7.86103 4.90531 7.90925 4.83477 7.94333C4.76424 7.97741 4.68742 7.99656 4.60914 7.99958C4.53086 8.0026 4.4528 7.98947 4.37985 7.96092C4.3069 7.93238 4.24063 7.88908 4.18519 7.83373L0.19893 4.42309C0.136331 4.36967 0.0860629 4.30337 0.0515943 4.22864C0.0171256 4.15391 -0.000723839 4.07257 -0.000723839 3.99027C-0.000723839 3.90798 0.0171256 3.82664 0.0515943 3.75191C0.0860629 3.67718 0.136331 3.61081 0.19893 3.55739L4.18519 0.14347C4.28589 0.0540263 4.41505 0.00317536 4.54969 6.49802e-06V0.000137755Z" fill="#512C36"/>
</svg>
