<svg width="27" height="22" viewBox="0 0 27 22" fill="none" xmlns="http://www.w3.org/2000/svg">
<path d="M24.9982 8.92292L25.0396 8.93196H7.31561L12.8874 3.34792C13.1602 3.0753 13.3099 2.70599 13.3099 2.31837C13.3099 1.93076 13.1602 1.56403 12.8874 1.29076L12.0204 0.423363C11.7478 0.150739 11.3845 0 10.9971 0C10.6095 0 10.246 0.149663 9.97336 0.422286L0.422292 9.9725C0.148592 10.2462 -0.00107094 10.6108 5.76931e-06 10.9986C-0.00107094 11.3886 0.148592 11.7534 0.422292 12.0266L9.97336 21.5777C10.246 21.8501 10.6093 22 10.9971 22C11.3845 22 11.7478 21.8499 12.0204 21.5777L12.8874 20.7103C13.1602 20.4381 13.3099 20.0746 13.3099 19.687C13.3099 19.2996 13.1602 18.9553 12.8874 18.6829L7.25273 13.0676H25.018C25.8163 13.0676 26.4871 12.3796 26.4871 11.5817V10.3549C26.4871 9.5571 25.7965 8.92292 24.9982 8.92292Z" fill="#CBA068"/>
</svg>
