<svg width="20" height="16" viewBox="0 0 20 16" fill="none" xmlns="http://www.w3.org/2000/svg">
<path d="M18.1308 6.4894L18.1608 6.49597H5.30591L9.34703 2.43485C9.54491 2.23658 9.65346 1.96799 9.65346 1.68609C9.65346 1.40419 9.54491 1.13748 9.34703 0.938735L8.71823 0.3079C8.5205 0.109629 8.25701 0 7.97604 0C7.69491 0 7.43127 0.108846 7.23354 0.307117L0.306282 7.25272C0.107772 7.45178 -0.000776739 7.71692 4.1844e-06 7.99898C-0.000776739 8.28261 0.107772 8.54791 0.306282 8.74665L7.23354 15.6929C7.43127 15.891 7.69475 16 7.97604 16C8.25701 16 8.5205 15.8908 8.71823 15.6929L9.34703 15.062C9.54491 14.8641 9.65346 14.5997 9.65346 14.3178C9.65346 14.0361 9.54491 13.7857 9.34703 13.5875L5.2603 9.50372H18.1452C18.7242 9.50372 19.2107 9.00334 19.2107 8.42309V7.53087C19.2107 6.95062 18.7098 6.4894 18.1308 6.4894Z" fill="#CBA068"/>
</svg>
