<svg width="20" height="16" viewBox="0 0 20 16" fill="none" xmlns="http://www.w3.org/2000/svg">
<path d="M1.08009 6.4894L1.0501 6.49597H13.905L9.86391 2.43485C9.66603 2.23658 9.55748 1.96799 9.55748 1.68609C9.55748 1.40419 9.66603 1.13748 9.86391 0.938735L10.4927 0.3079C10.6904 0.109629 10.9539 0 11.2349 0C11.516 0 11.7797 0.108846 11.9774 0.307117L18.9047 7.25272C19.1032 7.45178 19.2117 7.71692 19.2109 7.99898C19.2117 8.28261 19.1032 8.54791 18.9047 8.74665L11.9774 15.6929C11.7797 15.891 11.5162 16 11.2349 16C10.9539 16 10.6904 15.8908 10.4927 15.6929L9.86391 15.062C9.66603 14.8641 9.55748 14.5997 9.55748 14.3178C9.55748 14.0361 9.66603 13.7857 9.86391 13.5875L13.9506 9.50372H1.06572C0.486744 9.50372 0.000228882 9.00334 0.000228882 8.42309V7.53087C0.000228882 6.95062 0.501114 6.4894 1.08009 6.4894Z" fill="#CBA068"/>
</svg>
