<svg width="27" height="22" viewBox="0 0 27 22" fill="none" xmlns="http://www.w3.org/2000/svg">
<path d="M1.48909 8.92292L1.44774 8.93196H19.1717L13.5999 3.34792C13.3271 3.0753 13.1774 2.70599 13.1774 2.31837C13.1774 1.93076 13.3271 1.56403 13.5999 1.29076L14.4669 0.423363C14.7395 0.150739 15.1028 0 15.4902 0C15.8778 0 16.2413 0.149663 16.5139 0.422286L26.065 9.9725C26.3387 10.2462 26.4884 10.6108 26.4873 10.9986C26.4884 11.3886 26.3387 11.7534 26.065 12.0266L16.5139 21.5777C16.2413 21.8501 15.878 22 15.4902 22C15.1028 22 14.7395 21.8499 14.4669 21.5777L13.5999 20.7103C13.3271 20.4381 13.1774 20.0746 13.1774 19.687C13.1774 19.2996 13.3271 18.9553 13.5999 18.6829L19.2346 13.0676H1.46927C0.671001 13.0676 0.000209808 12.3796 0.000209808 11.5817V10.3549C0.000209808 9.5571 0.690813 8.92292 1.48909 8.92292Z" fill="#CBA068"/>
</svg>
