<svg width="15" height="16" viewBox="0 0 15 16" fill="none" xmlns="http://www.w3.org/2000/svg">
<path d="M14.8084 7.48574L13.4432 6.03118L7.98258 0.212938C7.85458 0.0765938 7.681 0 7.5 0C7.319 0 7.14542 0.0765938 7.01742 0.212938L1.55677 6.03118L0.191608 7.48574C0.0672709 7.6229 -0.0015294 7.80661 2.58034e-05 7.9973C0.00158101 8.18799 0.0733672 8.37041 0.199923 8.50525C0.326479 8.64009 0.497679 8.71658 0.676649 8.71824C0.85562 8.71989 1.02804 8.64659 1.15678 8.51411L1.35677 8.30102V15.2727C1.35677 15.4656 1.42869 15.6506 1.5567 15.787C1.68471 15.9234 1.85832 16 2.03935 16H12.9606C13.1417 16 13.3153 15.9234 13.4433 15.787C13.5713 15.6506 13.6432 15.4656 13.6432 15.2727V8.30102L13.8432 8.51411C13.972 8.64659 14.1444 8.71989 14.3233 8.71824C14.5023 8.71658 14.6735 8.64009 14.8001 8.50525C14.9266 8.37041 14.9984 8.18799 15 7.9973C15.0015 7.80661 14.9327 7.6229 14.8084 7.48574ZM12.2781 14.5454H2.72194V6.84646L7.5 1.7555L12.2781 6.84646V14.5454Z" fill="#CEA673"/>
</svg>
