<svg width="7" height="18" viewBox="0 0 7 18" fill="none" xmlns="http://www.w3.org/2000/svg">
<path d="M4.28262 0.486487C4.57443 0.802046 4.72034 1.19211 4.72034 1.65668C4.72034 2.12126 4.57443 2.51571 4.28262 2.84003C3.99869 3.16435 3.64377 3.32652 3.21788 3.32652C2.79198 3.32652 2.43707 3.16874 2.15314 2.85318C1.86921 2.52885 1.72724 2.13002 1.72724 1.65668C1.72724 1.19211 1.86921 0.802046 2.15314 0.486487C2.43707 0.162162 2.79198 0 3.21788 0C3.64377 0 3.99869 0.162162 4.28262 0.486487ZM4.67302 17.6976H6.35294V18H0V17.6976H1.69175V6.17969H0V5.87728C1.82977 5.87728 3.38745 5.75457 4.67302 5.50913V17.6976Z" fill="#E1BF91"/>
</svg>
