<svg width="25" height="24" viewBox="0 0 25 24" fill="none" xmlns="http://www.w3.org/2000/svg">
<path d="M12.1209 14.4023C13.4582 14.4023 14.5485 13.3249 14.5485 12C14.5485 11.477 14.3756 10.9941 14.0895 10.5997C13.6486 9.9945 12.9319 9.59766 12.1224 9.59766C11.3124 9.59766 10.5961 9.99401 10.1543 10.5992C9.86718 10.9936 9.6958 11.4765 9.69531 11.9995C9.69385 13.3244 10.7831 14.4023 12.1209 14.4023Z" fill="#999999"/>
<path d="M17.4198 9.06094V7.04724V6.74756L17.1156 6.74853L15.0825 6.75481L15.0903 9.06867L17.4198 9.06094Z" fill="#999999"/>
<path d="M12.1212 0C5.4376 0 0 5.38323 0 12C0 18.6163 5.4376 24 12.1212 24C18.8043 24 24.2424 18.6163 24.2424 12C24.2424 5.38323 18.8053 0 12.1212 0ZM19.0148 10.5997V16.1874C19.0148 17.6428 17.8195 18.8256 16.3504 18.8256H7.89202C6.4224 18.8256 5.22766 17.6428 5.22766 16.1874V10.5997V7.81358C5.22766 6.35866 6.4224 5.17586 7.89202 5.17586H16.3499C17.8195 5.17586 19.0148 6.35866 19.0148 7.81358V10.5997Z" fill="#999999"/>
<path d="M15.8919 11.9999C15.8919 14.0576 14.2006 15.7329 12.1212 15.7329C10.0417 15.7329 8.35095 14.0576 8.35095 11.9999C8.35095 11.5049 8.45055 11.0317 8.62827 10.5996H6.57031V16.1873C6.57031 16.9094 7.16256 17.4943 7.89151 17.4943H16.3494C17.0774 17.4943 17.6706 16.9094 17.6706 16.1873V10.5996H15.6117C15.7909 11.0317 15.8919 11.5049 15.8919 11.9999Z" fill="#999999"/>
</svg>
