<svg width="80" height="80" viewBox="0 0 80 80" fill="none" xmlns="http://www.w3.org/2000/svg">
<path d="M68.2844 11.7156C60.7292 4.16063 50.6844 0 40 0C29.3156 0 19.2708 4.16063 11.7158 11.7156C4.16078 19.2708 0 29.3158 0 40C0 50.6842 4.16078 60.7292 11.7158 68.2844C19.2708 75.8394 29.3156 80 40 80C50.6844 80 60.7292 75.8394 68.2844 68.2844C75.8392 60.7292 80 50.6844 80 40C80 29.3156 75.8392 19.2708 68.2844 11.7156ZM74.3233 24.5145L65.6786 28.0953C65.4027 28.2095 65.1678 28.4278 65.0437 28.7305C64.9248 29.0195 64.9248 29.3367 65.0437 29.6256C65.0437 29.6256 65.0437 29.6267 65.0448 29.627C66.3894 32.8777 67.1094 36.3331 67.1094 40.0009C67.1094 43.4406 66.4603 46.9603 65.0558 50.3475C65.0519 50.3563 65.0481 50.365 65.0445 50.3737C65.0414 50.3811 65.0386 50.3886 65.0356 50.3961C62.2952 56.9716 56.9517 62.3109 50.3719 65.0452C47.0766 66.4141 43.5859 67.1092 40 67.1092C36.4125 67.1092 32.9234 66.4141 29.6281 65.0452C23.0406 62.3077 17.6922 56.9591 14.9547 50.3714C13.5859 47.0775 12.8906 43.5884 12.8906 40.0008C12.8906 36.4212 13.5822 32.9416 14.9436 29.6539C14.9477 29.6447 14.9517 29.6355 14.9556 29.6261C14.9594 29.6172 14.9628 29.6083 14.9662 29.5994C17.7072 23.0261 23.0498 17.6886 29.628 14.9548C32.9233 13.5844 36.4123 12.8908 39.9998 12.8908C43.5873 12.8908 47.0764 13.5844 50.3717 14.9548C55.528 17.0986 60.0077 20.8941 62.9842 25.6411C63.3323 26.1961 64.0536 26.353 64.5998 26.0114C65.1442 25.6667 65.3152 24.9489 64.9702 24.3958C63.3545 21.8206 61.3594 19.5159 59.0389 17.5456C57.002 15.8153 54.7536 14.3783 52.3436 13.2617L55.4856 5.67656C63.8216 9.4525 70.5475 16.1784 74.3233 24.5145ZM40 2.34375C44.6878 2.34375 49.1781 3.20484 53.3214 4.77703L50.1795 12.362C46.923 11.157 43.5044 10.547 40 10.547C36.4956 10.547 33.077 11.157 29.8203 12.362L26.6786 4.77703C30.8219 3.20484 35.3123 2.34375 40 2.34375ZM24.5144 5.67688L27.6562 13.262C24.5069 14.722 21.6413 16.7262 19.1844 19.1831C16.7733 21.5945 14.7519 24.4439 13.2617 27.6562L5.67672 24.5144C9.4525 16.1784 16.1784 9.4525 24.5144 5.67688ZM2.34375 40C2.34375 35.3122 3.20484 30.8217 4.77703 26.6784L12.3617 29.8202C11.1569 33.078 10.5469 36.4966 10.5469 40.0009C10.5469 43.5041 11.1569 46.9227 12.3619 50.1795L4.77703 53.3214C3.20484 49.1781 2.34375 44.6877 2.34375 40ZM5.67672 55.4855L13.262 52.3434C14.7397 55.5308 16.7523 58.3831 19.1844 60.8153C21.6112 63.242 24.462 65.257 27.6562 66.738L24.5144 74.3231C16.1784 70.5473 9.4525 63.8216 5.67672 55.4855ZM40 77.6562C35.3123 77.6562 30.8219 76.7952 26.6786 75.223L29.8203 67.6383C33.0767 68.8433 36.4939 69.4531 39.9969 69.4531H40.0031C43.5061 69.4531 46.9233 68.8433 50.1797 67.6381L53.3216 75.223C49.1783 76.7952 44.6878 77.6562 40 77.6562ZM55.4856 74.3231L52.3436 66.738C55.5308 65.2605 58.3836 63.2473 60.8155 60.8153C63.2319 58.3986 65.2508 55.5509 66.7378 52.3434L74.3233 55.4853C70.5475 63.8216 63.8216 70.5473 55.4856 74.3231ZM67.6378 50.1795C68.8147 46.9941 69.4531 43.5594 69.4531 40.0008C69.4531 36.4948 68.8431 33.0761 67.6381 29.8203L75.223 26.6784C76.7952 30.8219 77.6562 35.3122 77.6562 40C77.6562 44.6877 76.7952 49.1781 75.223 53.3214L67.6378 50.1795Z" fill="#CEA673"/>
<path d="M49.2237 31.3813C49.1737 31.3672 49.1206 31.3563 49.0675 31.3484C48.9787 31.3061 48.583 31.3359 48.3111 31.4969C48.3094 31.4969 48.305 31.5014 48.3017 31.5014C48.2984 31.5031 48.297 31.5047 48.2939 31.5077H48.2922C47.849 31.78 47.6484 32.2944 47.7611 32.7717L47.7673 32.7702L47.7611 32.7734C47.8662 33.2045 48.1805 33.5347 48.6267 33.6484C51.7806 34.473 54.4423 37.3428 54.4423 41.3516C54.424 46.8528 48.5226 50.7267 43.3253 48.2797C43.3236 48.2797 43.3236 48.2781 43.322 48.2781C43.1312 48.1859 42.9084 48.1314 42.6751 48.1314C41.449 48.1314 40.7511 49.5517 41.4953 50.5125C41.5161 50.54 43.5578 53.2328 43.5798 53.2594C43.8548 53.6181 43.6272 54.1341 43.1501 54.1453C36.2587 54.1453 36.6884 54.2097 36.4578 53.9828C36.305 53.8227 36.214 53.5291 36.4203 53.2594C36.4236 53.2552 38.5006 50.5189 38.5031 50.5142C39.4359 49.3003 38.0886 47.6053 36.6828 48.2797C32.272 50.3725 26.414 47.9627 25.5859 42.0002C25.2139 38.0027 27.7794 34.6536 31.2547 33.683C31.7547 33.5425 32.1062 33.083 32.1109 32.5644C32.1515 28.3075 35.6447 24.8283 39.9219 24.8283C42.7 24.8283 45.2109 26.2566 46.6373 28.6502C46.9575 29.1905 47.6712 29.3958 48.2422 29.0566C48.8064 28.7236 48.9781 27.9983 48.6498 27.4503C45.3655 21.9273 37.8131 20.7967 33.0608 25.1534C31.1983 26.8614 30.0436 29.1831 29.8108 31.6894C27.9031 32.4013 26.2476 33.6728 25.0608 35.3503C23.2892 37.8561 22.8194 40.8417 23.4983 43.6441C23.5003 43.6441 23.5009 43.6514 23.5014 43.6536C24.8087 48.9528 29.9442 52.0598 35.017 51.2333C34.5015 51.9133 33.9508 52.5081 33.9561 53.5911C33.9594 55.16 35.2123 56.4895 36.8373 56.4895H43.1623C44.7831 56.4895 46.0403 55.1613 46.0434 53.5911C46.0461 52.5084 45.5042 51.9189 44.9778 51.2255C48.9826 51.893 53.0923 50.0977 55.2936 46.5239C55.2983 46.5177 55.3014 46.5114 55.3045 46.5052C58.8569 40.7434 55.7995 33.1088 49.2237 31.3813Z" fill="#CEA673"/>
</svg>
