<svg width="72" height="69" viewBox="0 0 72 69" fill="none" xmlns="http://www.w3.org/2000/svg">
<path d="M69.7826 31.5175C71.2312 30.1055 71.7426 28.0331 71.1176 26.1092C70.4924 24.1853 68.8605 22.8095 66.8587 22.5187L49.354 19.9752C49.0104 19.9253 48.7134 19.7095 48.5596 19.398L40.7313 3.53625C39.8362 1.72219 38.0234 0.595314 36.0004 0.595314C33.9774 0.595314 32.1646 1.72219 31.2694 3.53625L23.4412 19.3981C23.2873 19.7095 22.9904 19.9253 22.6466 19.9753L5.14226 22.5187C3.14039 22.8095 1.50867 24.1853 0.88336 26.1092C0.258047 28.0331 0.76961 30.1055 2.21836 31.5175L14.8848 43.8642C15.1334 44.1067 15.247 44.4559 15.1882 44.7983L12.198 62.232C11.8562 64.2259 12.6602 66.203 14.2968 67.392C15.9334 68.5814 18.0627 68.735 19.853 67.7939L35.5094 59.5628C35.8169 59.4011 36.184 59.4011 36.4916 59.5628L52.1482 67.7939C52.9269 68.2033 53.7696 68.4056 54.6082 68.4055C55.6973 68.4055 56.7794 68.0642 57.704 67.3919C59.3405 66.2027 60.1448 64.2255 59.8027 62.2319L56.8126 44.7981C56.754 44.4558 56.8674 44.1066 57.116 43.8641L69.7826 31.5175ZM52.653 45.5119L55.6432 62.9459C55.7432 63.5294 55.383 63.862 55.2235 63.9778C55.0638 64.0934 54.636 64.3336 54.1123 64.058L38.4557 55.8269C37.6871 55.423 36.844 55.2208 36.0007 55.2208C35.1574 55.2208 34.3141 55.423 33.5457 55.8267L17.8893 64.0577C17.3652 64.3331 16.9376 64.0933 16.778 63.9775C16.6185 63.8617 16.2582 63.5291 16.3584 62.9456L19.3485 45.5119C19.6421 43.8002 19.0751 42.0545 17.8312 40.8422L5.16476 28.4955C4.74086 28.082 4.8368 27.6012 4.89789 27.4137C4.95867 27.2261 5.16383 26.7806 5.74961 26.6956L23.2538 24.152C24.9724 23.9023 26.4576 22.8236 27.2263 21.2659L35.0546 5.40406C35.3166 4.87328 35.8035 4.81594 36.0009 4.81594C36.1979 4.81594 36.6848 4.87313 36.9469 5.40406V5.40422L44.7752 21.2661C45.5438 22.8237 47.0288 23.9025 48.7474 24.1522L66.2519 26.6958C66.8377 26.7808 67.0427 27.2262 67.1037 27.4139C67.1646 27.6016 67.2607 28.0825 66.8366 28.4956L54.1702 40.8423C52.9265 42.0545 52.3594 43.8002 52.653 45.5119Z" fill="#CEA673"/>
</svg>
