<svg width="80" height="80" viewBox="0 0 80 80" fill="none" xmlns="http://www.w3.org/2000/svg">
<path d="M14.5775 16.0151C14.1968 15.4938 13.5347 15.2602 12.9112 15.4273C12.2878 15.5943 11.8311 16.1276 11.7622 16.7694L10.7591 26.0966C10.6669 26.9546 11.2875 27.7249 12.1456 27.8172C12.2023 27.8233 12.2587 27.8263 12.3145 27.8263C13.1025 27.8263 13.78 27.2319 13.8662 26.4307L14.4371 21.1215L17.586 25.434C18.0949 26.1308 19.0725 26.2833 19.7694 25.7744C20.4663 25.2655 20.6188 24.2881 20.1099 23.591L14.5775 16.0151Z" fill="#CEA673"/>
<path d="M75.3126 11.8759H48.8969L46.6461 3.47601C46.3221 2.26665 45.5465 1.25588 44.4621 0.6298C43.3779 0.00371638 42.115 -0.162531 40.9051 0.161526L3.4762 10.1906C2.26684 10.5146 1.25607 11.2903 0.629991 12.3746C0.00406289 13.4588 -0.162341 14.7221 0.161717 15.9316L15.3671 72.6788C15.6912 73.8882 16.4668 74.899 17.5511 75.525C18.2735 75.9421 19.0749 76.155 19.8872 76.155C20.2942 76.155 20.7042 76.1014 21.108 75.9933L31.8758 73.1082V75.3124C31.8758 77.897 33.9785 79.9998 36.5632 79.9998H75.3126C77.8972 79.9998 80 77.897 80 75.3124V52.969C80 52.106 79.3005 51.4065 78.4375 51.4065C77.5746 51.4065 76.875 52.106 76.875 52.969V75.3124C76.875 76.1739 76.1741 76.8749 75.3126 76.8749H36.5632C35.7016 76.8749 35.0007 76.1739 35.0007 75.3124V16.5633C35.0007 15.7018 35.7016 15.0008 36.5632 15.0008H75.3126C76.1741 15.0008 76.875 15.7018 76.875 16.5633V38.9067C76.875 39.7697 77.5746 40.4692 78.4375 40.4692C79.3005 40.4692 80 39.7697 80 38.9067V16.5633C80 13.9787 77.8972 11.8759 75.3126 11.8759ZM31.8758 44.3837C30.3537 45.9102 27.9255 46.2586 26.0243 45.1611C23.7126 43.8263 22.9178 40.8598 24.2524 38.5481L29.3408 29.7348L31.8758 31.1984V44.3837ZM31.8758 16.5633V27.5898L29.5502 26.2472C28.8027 25.8155 27.8472 26.0717 27.4158 26.8191L21.5462 36.9855C20.4823 38.8281 20.1997 40.9749 20.7505 43.0302C21.3011 45.0855 22.6193 46.8033 24.462 47.8672C25.7237 48.5956 27.1015 48.9473 28.4627 48.9473C29.6419 48.9473 30.8083 48.6823 31.8758 48.1706V69.8729L20.2992 72.9749C19.8961 73.0827 19.475 73.0276 19.1136 72.8188C18.7522 72.6102 18.4936 72.2732 18.3856 71.8701L3.18026 15.1227C2.9573 14.2905 3.45291 13.4321 4.28509 13.209L41.7142 3.17992C42.1172 3.07195 42.5382 3.12742 42.8998 3.33601C43.2612 3.5446 43.5198 3.88162 43.6278 4.28474L45.6618 11.8757H36.5632C33.9785 11.8759 31.8758 13.9787 31.8758 16.5633Z" fill="#CEA673"/>
<path d="M48.267 31.1456C49.0718 30.8344 49.4721 29.9297 49.1609 29.1249L45.778 20.375C45.5452 19.7728 44.9661 19.376 44.3207 19.376C43.6752 19.376 43.0961 19.7728 42.8633 20.375L39.4806 29.1249C39.1693 29.9297 39.5696 30.8344 40.3745 31.1456C40.5598 31.2173 40.7501 31.2512 40.9376 31.2512C41.5643 31.2512 42.1557 30.8714 42.3952 30.2517L44.3207 25.2713L46.2463 30.2517C46.5573 31.0566 47.4623 31.4572 48.267 31.1456Z" fill="#CEA673"/>
<path d="M66.0979 71.5011C66.3307 72.1031 66.9097 72.5001 67.5552 72.5001C68.2006 72.5001 68.7797 72.1032 69.0125 71.5011L72.3953 62.7512C72.7065 61.9464 72.3062 61.0417 71.5014 60.7305C70.6967 60.4195 69.7919 60.8195 69.4806 61.6244L67.5552 66.6047L65.6296 61.6244C65.3185 60.8195 64.4135 60.4189 63.6088 60.7305C62.804 61.0417 62.4037 61.9464 62.7149 62.7512L66.0979 71.5011Z" fill="#CEA673"/>
<path d="M54.8335 57.8239C55.1385 58.1291 55.5385 58.2816 55.9383 58.2816C56.3382 58.2816 56.7382 58.1291 57.0432 57.8239L65.3441 49.523C68.45 46.4171 68.45 41.3633 65.3441 38.2574V38.2572C62.8092 35.7224 59.0031 35.2077 55.9383 36.8704C52.8737 35.2081 49.0673 35.7226 46.5325 38.2572C43.4267 41.3631 43.4267 46.4169 46.5325 49.5228L54.8335 57.8239ZM48.7422 40.467C49.6736 39.5356 50.9228 39.0578 52.1762 39.0578C53.1729 39.0578 54.1724 39.3602 55.0162 39.9769C55.5654 40.3783 56.3111 40.3783 56.8604 39.9769C58.7653 38.5846 61.4626 38.7952 63.1343 40.4669C65.0218 42.3545 65.0218 45.4257 63.1343 47.3132L55.9382 54.5093L48.742 47.3133C46.8547 45.4259 46.8547 42.3545 48.7422 40.467Z" fill="#CEA673"/>
<path d="M78.4375 44.3756C78.0266 44.3756 77.6234 44.5428 77.3328 44.8334C77.0422 45.124 76.875 45.5271 76.875 45.9381C76.875 46.349 77.0422 46.7521 77.3328 47.0428C77.6234 47.3334 78.0266 47.5006 78.4375 47.5006C78.8484 47.5006 79.2516 47.3334 79.5422 47.0428C79.8328 46.7521 80 46.349 80 45.9381C80 45.5271 79.8328 45.124 79.5422 44.8334C79.2516 44.5428 78.8484 44.3756 78.4375 44.3756Z" fill="#CEA673"/>
</svg>
