<svg width="88" height="66" viewBox="0 0 88 66" fill="none" xmlns="http://www.w3.org/2000/svg">
<path d="M7.33356 65.2205H23.467C25.7839 65.2145 27.9606 64.1094 29.3336 62.2423C30.7059 64.1094 32.8825 65.2145 35.2001 65.2205H52.7999C55.1175 65.2145 57.2941 64.1094 58.6664 62.2423C60.0394 64.1094 62.2161 65.2145 64.533 65.2205H80.6664C84.7149 65.2158 87.9953 61.9354 88 57.8876V8.02106C87.9953 3.9726 84.7149 0.6922 80.6664 0.6875H64.533C62.2161 0.694214 60.0394 1.79932 58.6664 3.66644C57.2941 1.79932 55.1175 0.694214 52.7999 0.6875H35.2001C32.8825 0.694214 30.7059 1.79932 29.3336 3.66644C27.9606 1.79932 25.7839 0.694214 23.467 0.6875H7.33356C3.2851 0.6922 0.00469972 3.9726 0 8.02106V57.8876C0.00469972 61.9354 3.2851 65.2158 7.33356 65.2205ZM64.533 3.62079H80.6664C83.0969 3.62079 85.0667 5.59064 85.0667 8.02106V57.8876C85.0667 60.3174 83.0969 62.2872 80.6664 62.2872H64.533C62.1033 62.2872 60.1334 60.3174 60.1334 57.8876V8.02106C60.1334 5.59064 62.1033 3.62079 64.533 3.62079ZM35.2001 3.62079H52.7999C55.2303 3.62079 57.2001 5.59064 57.2001 8.02106V57.8876C57.2001 60.3174 55.2303 62.2872 52.7999 62.2872H35.2001C32.7697 62.2872 30.7999 60.3174 30.7999 57.8876V8.02106C30.7999 5.59064 32.7697 3.62079 35.2001 3.62079ZM2.93329 8.02106C2.93329 5.59064 4.90314 3.62079 7.33356 3.62079H23.467C25.8967 3.62079 27.8666 5.59064 27.8666 8.02106V57.8876C27.8666 60.3174 25.8967 62.2872 23.467 62.2872H7.33356C4.90314 62.2872 2.93329 60.3174 2.93329 57.8876V8.02106Z" fill="#CEA673"/>
<path d="M64.5327 28.5541H70.3765C66.8456 34.2508 64.6737 43.8939 64.567 44.3693C64.4703 44.8036 64.5764 45.2589 64.855 45.606C65.1336 45.9531 65.5546 46.1545 65.9997 46.1545H74.7996C75.6099 46.1545 76.2665 45.4972 76.2665 44.6875C76.2665 36.4489 81.831 27.9854 81.8867 27.9001C82.0472 27.6591 82.1331 27.3765 82.1331 27.0878V21.2205C82.1331 20.4108 81.4765 19.7542 80.6661 19.7542H64.5327C63.723 19.7542 63.0664 20.4108 63.0664 21.2205V27.0878C63.0664 27.8975 63.723 28.5541 64.5327 28.5541ZM65.9997 22.6875H79.1998V26.6581C78.1115 28.3882 73.8831 35.562 73.3816 43.2205H67.8641C68.9961 38.8471 71.4702 31.0241 74.3699 28.1244C74.7895 27.7048 74.915 27.0743 74.6874 26.5265C74.4605 25.9786 73.9261 25.6208 73.3333 25.6208H65.9997V22.6875Z" fill="#CEA673"/>
<path d="M36.6655 28.5541H42.5093C38.9785 34.2508 36.8065 43.8939 36.6998 44.3693C36.6031 44.8036 36.7092 45.2589 36.9878 45.606C37.2664 45.9531 37.6874 46.1545 38.1325 46.1545H46.9324C47.7427 46.1545 48.3994 45.4972 48.3994 44.6875C48.3994 36.4489 53.9638 27.9854 54.0195 27.9001C54.18 27.6591 54.2653 27.3765 54.2659 27.0878V21.2205C54.2659 20.4108 53.6093 19.7542 52.799 19.7542H36.6655C35.8558 19.7542 35.1992 20.4108 35.1992 21.2205V27.0878C35.1992 27.8975 35.8558 28.5541 36.6655 28.5541ZM38.1325 22.6875H51.3326V26.6581C50.2443 28.3882 46.0159 35.562 45.5144 43.2205H39.9963C41.1289 38.8471 43.603 31.0241 46.5027 28.1244C46.9223 27.7048 47.0472 27.0743 46.8203 26.5265C46.5933 25.9786 46.0589 25.6208 45.4661 25.6208H38.1325V22.6875Z" fill="#CEA673"/>
<path d="M7.33417 28.5541H13.1772C9.64709 34.2508 7.48053 43.8939 7.36774 44.3693C7.27106 44.8036 7.37714 45.2589 7.65576 45.606C7.93439 45.9531 8.35535 46.1545 8.80048 46.1545H17.6003C18.4107 46.1545 19.0673 45.4972 19.0673 44.6875C19.0673 36.4489 24.6318 27.9854 24.6875 27.9001C24.848 27.6591 24.9339 27.3765 24.9339 27.0878V21.2205C24.9339 20.4108 24.2773 19.7542 23.4676 19.7542H7.33417C6.5238 19.7542 5.86719 20.4108 5.86719 21.2205V27.0878C5.86719 27.8975 6.5238 28.5541 7.33417 28.5541ZM8.80048 22.6875H22.0006V26.6581C20.9123 28.3882 16.6839 35.562 16.1824 43.2205H10.6649C11.7969 38.8471 14.2716 31.0241 17.1707 28.1244C17.5903 27.7048 17.7158 27.0743 17.4889 26.5265C17.262 25.9786 16.7269 25.6208 16.134 25.6208H8.80048V22.6875Z" fill="#CEA673"/>
<path d="M7.33417 9.48737H8.80048C9.61084 9.48737 10.2675 8.83075 10.2675 8.02106C10.2675 7.21069 9.61084 6.55408 8.80048 6.55408H7.33417C6.5238 6.55408 5.86719 7.21069 5.86719 8.02106C5.86719 8.83075 6.5238 9.48737 7.33417 9.48737Z" fill="#CEA673"/>
<path d="M14.6655 9.48737H21.9991C22.8088 9.48737 23.4661 8.83075 23.4661 8.02106C23.4661 7.21069 22.8088 6.55408 21.9991 6.55408H14.6655C13.8558 6.55408 13.1992 7.21069 13.1992 8.02106C13.1992 8.83075 13.8558 9.48737 14.6655 9.48737Z" fill="#CEA673"/>
<path d="M36.6655 9.48737H38.1325C38.9422 9.48737 39.5988 8.83075 39.5988 8.02106C39.5988 7.21069 38.9422 6.55408 38.1325 6.55408H36.6655C35.8558 6.55408 35.1992 7.21069 35.1992 8.02106C35.1992 8.83075 35.8558 9.48737 36.6655 9.48737Z" fill="#CEA673"/>
<path d="M44.0002 9.48737H51.3337C52.1434 9.48737 52.8 8.83075 52.8 8.02106C52.8 7.21069 52.1434 6.55408 51.3337 6.55408H44.0002C43.1905 6.55408 42.5332 7.21069 42.5332 8.02106C42.5332 8.83075 43.1905 9.48737 44.0002 9.48737Z" fill="#CEA673"/>
<path d="M64.5327 9.48737H65.9997C66.8094 9.48737 67.4667 8.83075 67.4667 8.02106C67.4667 7.21069 66.8094 6.55408 65.9997 6.55408H64.5327C63.723 6.55408 63.0664 7.21069 63.0664 8.02106C63.0664 8.83075 63.723 9.48737 64.5327 9.48737Z" fill="#CEA673"/>
<path d="M71.8667 9.48737H79.2003C80.0099 9.48737 80.6666 8.83075 80.6666 8.02106C80.6666 7.21069 80.0099 6.55408 79.2003 6.55408H71.8667C71.057 6.55408 70.4004 7.21069 70.4004 8.02106C70.4004 8.83075 71.057 9.48737 71.8667 9.48737Z" fill="#CEA673"/>
<path d="M79.2009 56.4207H77.7339C76.9242 56.4207 76.2676 57.0773 76.2676 57.8876C76.2676 58.6973 76.9242 59.3539 77.7339 59.3539H79.2009C80.0106 59.3539 80.6672 58.6973 80.6672 57.8876C80.6672 57.0773 80.0106 56.4207 79.2009 56.4207Z" fill="#CEA673"/>
<path d="M64.5327 59.3539H71.8663C72.6766 59.3539 73.3333 58.6973 73.3333 57.8876C73.3333 57.0773 72.6766 56.4207 71.8663 56.4207H64.5327C63.723 56.4207 63.0664 57.0773 63.0664 57.8876C63.0664 58.6973 63.723 59.3539 64.5327 59.3539Z" fill="#CEA673"/>
<path d="M49.8669 56.4207H48.4006C47.5902 56.4207 46.9336 57.0773 46.9336 57.8876C46.9336 58.6973 47.5902 59.3539 48.4006 59.3539H49.8669C50.6772 59.3539 51.3339 58.6973 51.3339 57.8876C51.3339 57.0773 50.6772 56.4207 49.8669 56.4207Z" fill="#CEA673"/>
<path d="M35.1994 59.3539H42.5323C43.3427 59.3539 43.9993 58.6973 43.9993 57.8876C43.9993 57.0773 43.3427 56.4207 42.5323 56.4207H35.1994C34.389 56.4207 33.7324 57.0773 33.7324 57.8876C33.7324 58.6973 34.389 59.3539 35.1994 59.3539Z" fill="#CEA673"/>
<path d="M21.9997 56.4207H20.5327C19.723 56.4207 19.0664 57.0773 19.0664 57.8876C19.0664 58.6973 19.723 59.3539 20.5327 59.3539H21.9997C22.8094 59.3539 23.4667 58.6973 23.4667 57.8876C23.4667 57.0773 22.8094 56.4207 21.9997 56.4207Z" fill="#CEA673"/>
<path d="M7.33417 59.3539H14.6671C15.4774 59.3539 16.134 58.6973 16.134 57.8876C16.134 57.0773 15.4774 56.4207 14.6671 56.4207H7.33417C6.5238 56.4207 5.86719 57.0773 5.86719 57.8876C5.86719 58.6973 6.5238 59.3539 7.33417 59.3539Z" fill="#CEA673"/>
</svg>
