<svg width="18" height="18" viewBox="0 0 18 18" fill="none" xmlns="http://www.w3.org/2000/svg">
<path d="M16.896 8.04132C16.1674 6.70894 15.0386 5.64687 13.947 4.61978C13.7551 4.43914 13.5737 4.26853 13.3934 4.09539C12.7169 3.44587 12.0321 2.81964 11.3697 2.21411C10.7122 1.61297 10.0324 0.991371 9.36543 0.350965L8.99998 0L8.63453 0.350895C7.96758 0.991301 7.28769 1.6129 6.63024 2.21404C5.96789 2.81964 5.28301 3.4458 4.60657 4.09532C4.42626 4.26846 4.24499 4.43904 4.053 4.61964C2.96133 5.6468 1.83253 6.7089 1.10385 8.04132C0.159694 9.76781 0.18585 11.6852 1.17574 13.3021C2.40361 15.3075 4.1154 15.7393 5.33519 15.7484C5.96955 15.7534 6.60345 15.6428 7.20764 15.4253C7.07489 15.9733 6.90484 16.2715 6.76148 16.3724L6.53746 16.53V18H11.4624V16.53L11.2384 16.3724C11.095 16.2715 10.9249 15.9733 10.7922 15.4253C11.3964 15.6428 12.0308 15.7534 12.6646 15.7485C13.8844 15.7393 15.5962 15.3075 16.8241 13.3021C17.814 11.6852 17.8402 9.76778 16.896 8.04132ZM15.9241 12.751C15.1415 14.0293 14.0422 14.6828 12.6569 14.6931C11.8698 14.6974 11.0819 14.4835 10.3777 14.0699L9.47765 13.5412L9.58565 14.5795C9.70187 15.6968 9.94459 16.4766 10.3239 16.9446H7.6761C8.05537 16.4767 8.29808 15.6968 8.41431 14.5795L8.52231 13.5413L7.62221 14.07C6.91806 14.4835 6.12972 14.699 5.34306 14.6932C3.95776 14.6828 2.85846 14.0294 2.07578 12.7511C1.2887 11.4655 1.27193 9.93343 2.02976 8.54775C2.6779 7.36253 3.74458 6.35889 4.77613 5.38829C4.96151 5.21385 5.15329 5.03346 5.33744 4.85663C6.00456 4.21604 6.68462 3.59427 7.34226 2.99296C7.88535 2.49641 8.44356 1.98601 8.99991 1.46025C9.55626 1.98601 10.1145 2.49641 10.6576 2.99296C11.3152 3.59427 11.9953 4.21604 12.6624 4.85663C12.8466 5.0335 13.0383 5.21388 13.2238 5.38836C14.2553 6.35892 15.322 7.36253 15.9701 8.54771C16.728 9.93336 16.7112 11.4654 15.9241 12.751Z" fill="#B79968"/>
</svg>
