<svg width="18" height="18" viewBox="0 0 18 18" fill="none" xmlns="http://www.w3.org/2000/svg">
<path d="M16.3269 8.4665C15.6122 7.40538 14.5378 6.70366 13.3018 6.49055C13.2287 6.47793 13.1554 6.46713 13.0818 6.45813C13.3214 5.89764 13.4458 5.29516 13.4458 4.67937C13.4458 2.09914 11.2633 0 8.58058 0C5.89791 0 3.71537 2.09914 3.71544 4.67933C3.71544 5.29516 3.83976 5.89757 4.07949 6.4581C4.00591 6.4671 3.93257 6.47789 3.85944 6.49051C2.62339 6.70363 1.54905 7.40535 0.834284 8.46647C0.124409 9.52035 -0.145345 10.8037 0.0747331 12.08C0.294776 13.3564 0.978706 14.4753 2.00052 15.2306C3.02933 15.9911 4.27671 16.2926 5.51267 16.0794C5.93243 16.0071 6.33698 15.8765 6.71631 15.6927C6.59769 16.0734 6.46139 16.2905 6.34351 16.3734L6.11964 16.531V18H11.0415H11.0415V16.531L10.8177 16.3735C10.6998 16.2905 10.5636 16.0735 10.4449 15.6927C10.8243 15.8766 11.2288 16.0071 11.6486 16.0795C12.8846 16.2926 14.1319 15.9911 15.1607 15.2306C16.1825 14.4753 16.8664 13.3564 17.0865 12.0801C17.3066 10.8037 17.0368 9.52038 16.3269 8.4665ZM16.0471 11.9009C15.8735 12.9081 15.336 13.7895 14.5338 14.3825C13.7385 14.9703 12.7775 15.2039 11.8277 15.0401C11.164 14.9257 10.5495 14.6212 10.0506 14.1595L9.02014 13.206L9.16797 14.6021C9.28511 15.7079 9.52698 16.4805 9.90361 16.9453H7.25751C7.63417 16.4805 7.87605 15.7079 7.99319 14.6021L8.14105 13.206L7.11062 14.1595C6.61169 14.6212 5.99715 14.9257 5.33348 15.0401C4.38366 15.2039 3.42266 14.9703 2.62743 14.3825C1.8252 13.7894 1.28773 12.9081 1.11406 11.9008C0.940385 10.8935 1.15164 9.88309 1.70901 9.05569C2.26149 8.23549 3.08882 7.69363 4.03864 7.52987C4.32832 7.47991 4.62339 7.46691 4.91571 7.4912L6.02693 7.58359L5.39335 6.66601C4.98557 6.07556 4.77006 5.38857 4.77006 4.67937C4.77006 2.68073 6.47946 1.05469 8.58058 1.05469C10.6817 1.05469 12.3911 2.68073 12.3911 4.6794C12.3911 5.38864 12.1756 6.07563 11.7678 6.66605L11.1342 7.58363L12.2455 7.49123C12.5377 7.46694 12.8329 7.47995 13.1226 7.52991C14.0724 7.69366 14.8997 8.23553 15.4521 9.05572C16.0095 9.88312 16.2208 10.8936 16.0471 11.9009Z" fill="#B79968"/>
</svg>
