<svg width="50" height="50" viewBox="0 0 50 50" fill="none" xmlns="http://www.w3.org/2000/svg">
<g clip-path="url(#clip0)">
<path d="M49.9869 24.1847C49.5674 11.05 38.9502 0.433179 25.816 0.0137275C18.6691 -0.213022 11.9828 2.50727 7.04138 7.60913C2.29087 12.5137 -0.205125 18.9796 0.0132007 25.8165C0.432301 38.9507 11.0495 49.568 24.1838 49.9871C24.4572 49.9958 24.7282 50 24.9999 50C31.8283 50 38.2061 47.298 42.9583 42.3917C47.7089 37.4874 50.2052 31.0212 49.9869 24.1847ZM39.1766 38.7289C35.4251 42.6023 30.3902 44.7353 24.9999 44.7353C24.7843 44.7353 24.5688 44.7318 24.3516 44.7251C13.9857 44.3941 5.60647 36.0149 5.27512 25.6487C5.10278 20.2495 7.07297 15.1438 10.8231 11.2722C14.5747 7.39888 19.6095 5.26582 24.9999 5.26582C25.2154 5.26582 25.4309 5.26933 25.6482 5.276C36.0141 5.607 44.3933 13.9862 44.7246 24.3524C44.8969 29.7516 42.9264 34.8573 39.1766 38.7289Z" fill="#CB9F67"/>
<path d="M33.2001 23.5475L22.1139 15.5987C20.9314 14.7506 19.2852 15.5959 19.2852 17.0511V32.9492C19.2852 34.4045 20.9314 35.2497 22.1139 34.4017L33.1997 26.4525C34.1945 25.7396 34.1945 24.2608 33.2001 23.5475Z" fill="#CB9F67"/>
</g>
<defs>
<clipPath id="clip0">
<rect width="50" height="50" fill="white"/>
</clipPath>
</defs>
</svg>
