<svg width="14" height="10" viewBox="0 0 14 10" fill="none" xmlns="http://www.w3.org/2000/svg">
<path d="M13.9998 1.06147C14.0043 0.854555 13.9443 0.651362 13.8281 0.480141C13.7118 0.30892 13.545 0.178178 13.351 0.106094C13.157 0.0340107 12.9453 0.0241659 12.7455 0.0779285C12.5456 0.131691 12.3676 0.246389 12.2359 0.406078L7.0161 6.49909L1.79814 0.406077C1.71695 0.295613 1.61388 0.203102 1.49528 0.134337C1.37668 0.0655723 1.24513 0.0220358 1.10893 0.00645333C0.972723 -0.00912914 0.8348 0.00357851 0.703736 0.0437803C0.572672 0.0839821 0.451282 0.150812 0.347243 0.240085C0.243203 0.329358 0.15881 0.439151 0.0991678 0.562588C0.039526 0.686025 0.00602719 0.820447 0.00074192 0.957436C-0.0045443 1.09442 0.0184345 1.23103 0.0683879 1.35869C0.118341 1.48636 0.194115 1.60234 0.290967 1.69936L6.25958 8.67531C6.35307 8.78486 6.46911 8.87283 6.59988 8.93315C6.73066 8.99347 6.873 9.0247 7.01702 9.0247C7.16104 9.0247 7.30338 8.99347 7.43415 8.93315C7.56493 8.87283 7.68108 8.78486 7.77457 8.67531L13.7489 1.69936C13.9055 1.52314 13.9944 1.29711 14 1.06147L13.9998 1.06147Z" fill="#CDA36D"/>
</svg>
