<svg width="27" height="22" viewBox="0 0 27 22" fill="none" xmlns="http://www.w3.org/2000/svg">
<path d="M1.48884 8.92292L1.4475 8.93196H19.1715L13.5997 3.34792C13.3268 3.0753 13.1772 2.70599 13.1772 2.31837C13.1772 1.93076 13.3268 1.56403 13.5997 1.29076L14.4667 0.423363C14.7393 0.150739 15.1026 0 15.49 0C15.8776 0 16.2411 0.149663 16.5137 0.422286L26.0648 9.9725C26.3385 10.2462 26.4881 10.6108 26.4871 10.9986C26.4881 11.3886 26.3385 11.7534 26.0648 12.0266L16.5137 21.5777C16.2411 21.8501 15.8778 22 15.49 22C15.1026 22 14.7393 21.8499 14.4667 21.5777L13.5997 20.7103C13.3268 20.4381 13.1772 20.0746 13.1772 19.687C13.1772 19.2996 13.3268 18.9553 13.5997 18.6829L19.2343 13.0676H1.46903C0.670757 13.0676 -3.43323e-05 12.3796 -3.43323e-05 11.5817V10.3549C-3.43323e-05 9.5571 0.690569 8.92292 1.48884 8.92292Z" fill="#CBA068"/>
</svg>
