<svg width="6" height="8" viewBox="0 0 6 8" fill="none" xmlns="http://www.w3.org/2000/svg">
<path d="M4.55165 0.000137755C4.66989 -0.00246282 4.786 0.0318128 4.88384 0.0982521C4.98168 0.164691 5.05639 0.260011 5.09758 0.370872C5.13877 0.481734 5.14439 0.602658 5.11367 0.716865C5.08295 0.831071 5.01741 0.932823 4.92616 1.00806L1.44444 3.9908L4.92616 6.97249C4.98928 7.01889 5.04214 7.07778 5.08144 7.14555C5.12073 7.21332 5.14561 7.2885 5.15452 7.36633C5.16342 7.44416 5.15616 7.52297 5.13319 7.59787C5.11021 7.67276 5.07202 7.74212 5.02101 7.80158C4.97 7.86103 4.90726 7.90925 4.83672 7.94333C4.76619 7.97741 4.68938 7.99656 4.6111 7.99958C4.53282 8.0026 4.45476 7.98947 4.38181 7.96092C4.30885 7.93238 4.24258 7.88908 4.18714 7.83373L0.200883 4.42309C0.138284 4.36967 0.088016 4.30337 0.0535474 4.22864C0.0190787 4.15391 0.00122929 4.07257 0.00122929 3.99027C0.00122929 3.90798 0.0190787 3.82664 0.0535474 3.75191C0.088016 3.67718 0.138284 3.61081 0.200883 3.55739L4.18714 0.14347C4.28784 0.0540263 4.417 0.00317536 4.55165 6.49802e-06V0.000137755Z" fill="#512C36"/>
</svg>
